<?xml version="1.0" encoding="UTF-8"?>
<svg version="1.1" xmlns="http://www.w3.org/2000/svg" width="233" height="61">
<path d="M0 0 C2.3125 1.8125 2.3125 1.8125 4 4 C5.96879323 5.06011943 7.96435867 6.07470849 10 7 C10 8.98 10 10.96 10 13 C10.99 13 11.98 13 13 13 C16.56412364 17.22414654 16.17488778 20.75336673 16 26 C16.33 26.33 16.66 26.66 17 27 C17.28570776 31.85703196 16.7326386 35.4758881 15 40 C14.7525 41.051875 14.505 42.10375 14.25 43.1875 C12.59853392 46.90329867 10.68283397 47.51119478 7 49 C6.67 49.33 6.34 49.66 6 50 C5.38769531 49.98839844 4.77539062 49.97679687 4.14453125 49.96484375 C1.46807327 49.9334615 -0.47194905 50.08300315 -3 51 C-4.91996904 53.50579479 -6.21102043 55.97672088 -7.515625 58.84765625 C-8.00546875 59.55792969 -8.4953125 60.26820312 -9 61 C-11.671875 61.30859375 -11.671875 61.30859375 -14 61 C-15.14947895 57.44706507 -15.0868937 56.20023331 -13.5625 52.6875 C-13.046875 51.800625 -12.53125 50.91375 -12 50 C-12.65226562 49.82984375 -13.30453125 49.6596875 -13.9765625 49.484375 C-19.31119331 48.00515584 -23.79059213 46.66974019 -28 43 C-28.75 40.3125 -28.75 40.3125 -29 38 C-29.66 37.67 -30.32 37.34 -31 37 C-33.80447813 31.39104373 -32.78917907 25.99349509 -32 20 C-31.01 19.67 -30.02 19.34 -29 19 C-29.28875 18.030625 -29.5775 17.06125 -29.875 16.0625 C-30.58149095 11.38438426 -28.25812321 8.60914948 -25.640625 4.91796875 C-23.69916575 2.64831044 -22.0994215 1.08925996 -19.02734375 0.83984375 C-18.33769531 0.87207031 -17.64804687 0.90429688 -16.9375 0.9375 C-11.18588925 1.02879541 -6.0363777 -0.6657108 0 0 Z " fill="#191C1D" transform="translate(33,0)"/>
<path d="M0 0 C1.76949095 -0.10815225 3.54087487 -0.18566083 5.3125 -0.25 C6.29863281 -0.29640625 7.28476562 -0.3428125 8.30078125 -0.390625 C11 0 11 0 12.66015625 1.92578125 C13.10230469 2.61027344 13.54445313 3.29476563 14 4 C15.546875 4.7115625 15.546875 4.7115625 17.125 5.4375 C18.07375 5.953125 19.0225 6.46875 20 7 C20.75 9.5625 20.75 9.5625 21 12 C21.66 12.66 22.32 13.32 23 14 C22.67 14.99 22.34 15.98 22 17 C23.32 17.33 24.64 17.66 26 18 C26 22.29 26 26.58 26 31 C25.01 31.33 24.02 31.66 23 32 C23.391875 32.70125 23.78375 33.4025 24.1875 34.125 C25 37 25 37 24 40.125 C21.56650198 43.62315341 20.01089033 44.58876081 16 46 C14.50020211 46.03225372 13.00011066 46.05239824 11.5 46.0625 C9.15951419 46.11390226 9.15951419 46.11390226 7 47 C5.02436585 49.49733841 3.6648308 51.97946094 2.2890625 54.84765625 C1.86367188 55.55792969 1.43828125 56.26820312 1 57 C0.01 57 -0.98 57 -2 57 C-1.690625 56.29875 -1.38125 55.5975 -1.0625 54.875 C0.03535513 51.90433317 0.52467751 49.12354776 1 46 C1.33 45.01 1.66 44.02 2 43 C2 43.66 2 44.32 2 45 C7.16842829 43.55062448 7.16842829 43.55062448 11 40 C11 39.34 11 38.68 11 38 C11 35 11 35 13 33 C12.7525 31.5459375 12.7525 31.5459375 12.5 30.0625 C12 27 12 27 14 24 C13.34 23.01 12.68 22.02 12 21 C11.45505822 18.92518463 11.05773159 16.84972282 10.66015625 14.7421875 C10.44230469 14.16726562 10.22445312 13.59234375 10 13 C9.01 12.67 8.02 12.34 7 12 C5.31267723 10.01739574 3.64633943 8.0167658 2 6 C1.01 5.34 0.02 4.68 -1 4 C-0.67 2.68 -0.34 1.36 0 0 Z " fill="#1A1D1E" transform="translate(22,2)"/>
<path d="M0 0 C2.375 1.875 2.375 1.875 4 4 C6.63222962 5.25436187 6.63222962 5.25436187 9 6 C9.495 9.465 9.495 9.465 10 13 C10.99 13 11.98 13 13 13 C16.56412364 17.22414654 16.17488778 20.75336673 16 26 C16.33 26.33 16.66 26.66 17 27 C17.28570776 31.85703196 16.7326386 35.4758881 15 40 C14.7525 41.051875 14.505 42.10375 14.25 43.1875 C12.59853392 46.90329867 10.68283397 47.51119478 7 49 C6.67 49.33 6.34 49.66 6 50 C5.38769531 49.98839844 4.77539062 49.97679687 4.14453125 49.96484375 C1.46807327 49.9334615 -0.47194905 50.08300315 -3 51 C-4.91996904 53.50579479 -6.21102043 55.97672088 -7.515625 58.84765625 C-8.00546875 59.55792969 -8.4953125 60.26820312 -9 61 C-11.671875 61.30859375 -11.671875 61.30859375 -14 61 C-15.14947895 57.44706507 -15.0868937 56.20023331 -13.5625 52.6875 C-13.046875 51.800625 -12.53125 50.91375 -12 50 C-12.65226562 49.82984375 -13.30453125 49.6596875 -13.9765625 49.484375 C-19.31119331 48.00515584 -23.79059213 46.66974019 -28 43 C-28.75 40.3125 -28.75 40.3125 -29 38 C-29.66 37.67 -30.32 37.34 -31 37 C-33.80447813 31.39104373 -32.78917907 25.99349509 -32 20 C-31.01 19.67 -30.02 19.34 -29 19 C-29.28875 18.030625 -29.5775 17.06125 -29.875 16.0625 C-30.58149095 11.38438426 -28.25812321 8.60914948 -25.640625 4.91796875 C-23.69916575 2.64831044 -22.0994215 1.08925996 -19.02734375 0.83984375 C-18.33769531 0.87207031 -17.64804687 0.90429688 -16.9375 0.9375 C-11.18490281 1.02881107 -6.03695471 -0.67376727 0 0 Z M-11 2 C-11.33 3.32 -11.66 4.64 -12 6 C-10.35 7.32 -8.7 8.64 -7 10 C-7.99 10.495 -7.99 10.495 -9 11 C-9 10.34 -9 9.68 -9 9 C-9.99 9 -10.98 9 -12 9 C-12.66 7.35 -13.32 5.7 -14 4 C-16.31 3.67 -18.62 3.34 -21 3 C-25.84998724 7.94141548 -25.84998724 7.94141548 -28.2421875 14.15625 C-27.95421006 16.26346131 -27.95421006 16.26346131 -27 19 C-27.99 19.66 -28.98 20.32 -30 21 C-29.67 22.32 -29.34 23.64 -29 25 C-29.66 25.33 -30.32 25.66 -31 26 C-30.67 27.65 -30.34 29.3 -30 31 C-29.34 31 -28.68 31 -28 31 C-28.495 33.475 -28.495 33.475 -29 36 C-27.68 36.33 -26.36 36.66 -25 37 C-25.495 39.475 -25.495 39.475 -26 42 C-20.6611855 45.50359702 -15.42069423 48 -9 48 C-9.474375 49.0725 -9.94875 50.145 -10.4375 51.25 C-11.53766332 53.80839865 -12.45167003 56.25835017 -13 59 C-11.05379344 58.84441127 -11.05379344 58.84441127 -9 58 C-7.75919224 55.9437827 -7.75919224 55.9437827 -6.8125 53.5 C-4.61952172 49.20880177 -4.61952172 49.20880177 -1.890625 48.2890625 C-0.3343636 48.17939307 1.2252967 48.11058109 2.78515625 48.08203125 C6.14472468 47.95760279 8.26081968 46.89133879 11 45 C13.13438754 42.23202279 13.13438754 42.23202279 14 39 C13.32006573 36.16924452 13.32006573 36.16924452 12 34 C12.99 33.67 13.98 33.34 15 33 C15 28.71 15 24.42 15 20 C13.68 19.67 12.36 19.34 11 19 C11.33 17.68 11.66 16.36 12 15 C11.01 14.34 10.02 13.68 9 13 C8.87625 12.175 8.7525 11.35 8.625 10.5 C8.41875 9.675 8.2125 8.85 8 8 C5.60931266 6.89363605 5.60931266 6.89363605 3 6 C2.56816406 5.32582031 2.13632812 4.65164062 1.69140625 3.95703125 C0.12943372 1.71783558 0.12943372 1.71783558 -2.69921875 1.609375 C-3.68535156 1.65578125 -4.67148437 1.7021875 -5.6875 1.75 C-6.68136719 1.78609375 -7.67523437 1.8221875 -8.69921875 1.859375 C-9.45847656 1.90578125 -10.21773437 1.9521875 -11 2 Z " fill="#C9C6BE" transform="translate(33,0)"/>
<path d="M0 0 C1.98 0 3.96 0 6 0 C6 2.31 6 4.62 6 7 C7.65 7 9.3 7 11 7 C11 4.69 11 2.38 11 0 C12.65 0 14.3 0 16 0 C16 6.6 16 13.2 16 20 C14.35 20 12.7 20 11 20 C11 17.36 11 14.72 11 12 C9.35 12 7.7 12 6 12 C6 14.64 6 17.28 6 20 C4.02 20 2.04 20 0 20 C0 13.4 0 6.8 0 0 Z " fill="#FFFFFF" transform="translate(61,26)"/>
<path d="M0 0 C0 4.95 0 9.9 0 15 C-11.44112478 15.36906854 -11.44112478 15.36906854 -13.86328125 13.76953125 C-15.29444126 11.54164299 -15.40136288 10.1362878 -15.375 7.5 C-15.38273437 6.7265625 -15.39046875 5.953125 -15.3984375 5.15625 C-15 3 -15 3 -13.86328125 1.23046875 C-9.94940266 -1.35416805 -4.46930022 -0.14417097 0 0 Z M-9 5 C-9.33 6.32 -9.66 7.64 -10 9 C-8.68 9.33 -7.36 9.66 -6 10 C-5.67 9.01 -5.34 8.02 -5 7 C-5.33 6.34 -5.66 5.68 -6 5 C-6.99 5 -7.98 5 -9 5 Z " fill="#FFFFFF" transform="translate(94,31)"/>
<path d="M0 0 C0 4.95 0 9.9 0 15 C-10.16725352 15.48415493 -10.16725352 15.48415493 -13.6875 13.4375 C-15.52035388 10.03362851 -15.54407614 7.80853299 -15 4 C-11.87050051 -1.81192763 -5.76447771 -0.27449894 0 0 Z M-9 5 C-9.33 6.32 -9.66 7.64 -10 9 C-8.68 9.33 -7.36 9.66 -6 10 C-5.67 8.68 -5.34 7.36 -5 6 C-6.32 5.67 -7.64 5.34 -9 5 Z " fill="#FFFFFF" transform="translate(123,31)"/>
<path d="M0 0 C0.33 1.32 0.66 2.64 1 4 C1.99 4 2.98 4 4 4 C7.56412364 8.22414654 7.17488778 11.75336673 7 17 C7.33 17.33 7.66 17.66 8 18 C8.28570776 22.85703196 7.7326386 26.4758881 6 31 C5.7525 32.051875 5.505 33.10375 5.25 34.1875 C3.59853392 37.90329867 1.68283397 38.51119478 -2 40 C-2.33 40.33 -2.66 40.66 -3 41 C-3.61230469 40.98839844 -4.22460938 40.97679687 -4.85546875 40.96484375 C-7.53192673 40.9334615 -9.47194905 41.08300315 -12 42 C-13.91996904 44.50579479 -15.21102043 46.97672088 -16.515625 49.84765625 C-17.25039063 50.91306641 -17.25039063 50.91306641 -18 52 C-20.671875 52.30859375 -20.671875 52.30859375 -23 52 C-24.14947895 48.44706507 -24.0868937 47.20023331 -22.5625 43.6875 C-22.046875 42.800625 -21.53125 41.91375 -21 41 C-20.01 41 -19.02 41 -18 41 C-19.19899698 44.0831351 -20.47700477 47.06279492 -22 50 C-18.31366345 48.77122115 -18.10504797 47.85395804 -16.375 44.5 C-14.05298013 40.05298013 -14.05298013 40.05298013 -13 39 C-11.60755002 38.84170042 -10.21046392 38.72334922 -8.8125 38.625 C-4.62072949 38.17111402 -1.47932422 37.54584699 2 35 C3.61653773 31.06408206 4.3580566 29.0741698 3 25 C3.66 24.67 4.32 24.34 5 24 C5 19.71 5 15.42 5 11 C4.01 10.67 3.02 10.34 2 10 C1.4375 8.0625 1.4375 8.0625 1 6 C0.34 5.34 -0.32 4.68 -1 4 C-0.625 1.875 -0.625 1.875 0 0 Z " fill="#ADACA5" transform="translate(42,9)"/>
<path d="M0 0 C2.77141717 -0.08089542 5.54047819 -0.14044062 8.3125 -0.1875 C9.09818359 -0.21263672 9.88386719 -0.23777344 10.69335938 -0.26367188 C11.45068359 -0.27333984 12.20800781 -0.28300781 12.98828125 -0.29296875 C14.03302612 -0.31653442 14.03302612 -0.31653442 15.09887695 -0.34057617 C17.60473559 0.10833519 18.47375167 0.99635812 20 3 C20.29296875 5.91796875 20.29296875 5.91796875 20.1875 9.1875 C20.16042969 10.27417969 20.13335937 11.36085938 20.10546875 12.48046875 C20.07066406 13.31191406 20.03585938 14.14335938 20 15 C19.01 15 18.02 15 17 15 C16.505 10.05 16.505 10.05 16 5 C14.68 5 13.36 5 12 5 C11.67 8.3 11.34 11.6 11 15 C10.01 15 9.02 15 8 15 C7.67 11.37 7.34 7.74 7 4 C6.01 4 5.02 4 4 4 C3.67 7.63 3.34 11.26 3 15 C2.01 15 1.02 15 0 15 C0 10.05 0 5.1 0 0 Z " fill="#FFFFFF" transform="translate(126,31)"/>
<path d="M0 0 C2.9375 2.0625 2.9375 2.0625 5 5 C5.06641554 8.85210127 4.87229157 10.99848005 2.3125 13.9375 C-0.73602877 15.33817538 -2.67926952 15.4842732 -6 15 C-8.375 13.4375 -8.375 13.4375 -10 11 C-10.56783945 7.02512383 -10.62340519 4.93510779 -8.375 1.5625 C-5.24316508 -0.49791771 -3.68455227 -0.6767545 0 0 Z M-4 5 C-4.33 6.32 -4.66 7.64 -5 9 C-3.68 9 -2.36 9 -1 9 C-1 8.01 -1 7.02 -1 6 C-1.99 5.67 -2.98 5.34 -4 5 Z " fill="#FFFFFF" transform="translate(227,31)"/>
<path d="M0 0 C0.99 0 1.98 0 3 0 C3 6.6 3 13.2 3 20 C-7 20 -7 20 -11 17 C-12.14217883 13.49731826 -12.23740475 11.66770085 -11 8.1875 C-9 6 -9 6 -5.4375 5.125 C-2 5 -2 5 0 6 C0 4.02 0 2.04 0 0 Z M-6 8 C-8.2491908 9.82703227 -8.2491908 9.82703227 -8.25 12.5 C-8.2491908 15.17296773 -8.2491908 15.17296773 -6 17 C-2.69316534 16.71016731 -2.69316534 16.71016731 0 15 C0.2500773 12.54190002 0.2500773 12.54190002 0 10 C-0.66 9.34 -1.32 8.68 -2 8 C-3.32 8 -4.64 8 -6 8 Z " fill="#FFFFFF" transform="translate(175,26)"/>
<path d="M0 0 C3 0.375 3 0.375 6 2.375 C5.814375 3.014375 5.62875 3.65375 5.4375 4.3125 C5.293125 4.993125 5.14875 5.67375 5 6.375 C5.33 6.705 5.66 7.035 6 7.375 C6.25 10.3125 6.25 10.3125 6 13.375 C2.53001271 15.68832486 1.07490752 15.71457563 -3 15.375 C-3.99 14.715 -4.98 14.055 -6 13.375 C-5.62875 12.818125 -5.2575 12.26125 -4.875 11.6875 C-3.67859754 9.33081633 -3.67859754 9.33081633 -5.0625 6.875 C-6 4.375 -6 4.375 -5 2.0625 C-3 0.375 -3 0.375 0 0 Z " fill="#FFFFFF" transform="translate(101,30.625)"/>
<path d="M0 0 C2.375 1.6875 2.375 1.6875 4 4 C4 5.65 4 7.3 4 9 C0.7 9.33 -2.6 9.66 -6 10 C-2.71303767 10.79953138 -1.28976808 11.09658936 2 10 C2.66 10.66 3.32 11.32 4 12 C1.62741513 14.19007834 0.23535087 14.965678 -3 15.4375 C-6 15 -6 15 -8.375 13.4375 C-10.62340519 10.06489221 -10.56783945 7.97487617 -10 4 C-7.26646839 -0.10029741 -4.80388991 -0.80064832 0 0 Z M-5 3 C-5.99 4.485 -5.99 4.485 -7 6 C-4.36 6 -1.72 6 1 6 C0.34 5.01 -0.32 4.02 -1 3 C-2.32 3 -3.64 3 -5 3 Z " fill="#FFFFFF" transform="translate(158,31)"/>
<path d="M0 0 C1.60875 0.020625 3.2175 0.04125 4.875 0.0625 C4.875 5.0125 4.875 9.9625 4.875 15.0625 C3.3075 15.124375 1.74 15.18625 0.125 15.25 C-0.75671875 15.28480469 -1.6384375 15.31960937 -2.546875 15.35546875 C-5.62669595 15.0054891 -6.91034434 14.1971681 -9.125 12.0625 C-10.31808162 8.40371638 -10.45167744 6.76252308 -8.8125 3.25 C-6.12129811 -0.23859504 -4.21720727 -0.05406676 0 0 Z M-4.125 3.0625 C-6.3741908 4.88953227 -6.3741908 4.88953227 -6.375 7.5625 C-6.3741908 10.23546773 -6.3741908 10.23546773 -4.125 12.0625 C-0.81816534 11.77266731 -0.81816534 11.77266731 1.875 10.0625 C2.1250773 7.60440002 2.1250773 7.60440002 1.875 5.0625 C1.215 4.4025 0.555 3.7425 -0.125 3.0625 C-1.445 3.0625 -2.765 3.0625 -4.125 3.0625 Z " fill="#FFFFFF" transform="translate(196.125,30.9375)"/>
<path d="M0 0 C1.65 0.33 3.3 0.66 5 1 C5 7.6 5 14.2 5 21 C3.02 21 1.04 21 -1 21 C-1.02888146 17.68751813 -1.04675799 14.37506833 -1.0625 11.0625 C-1.07087891 10.11697266 -1.07925781 9.17144531 -1.08789062 8.19726562 C-1.09111328 7.29814453 -1.09433594 6.39902344 -1.09765625 5.47265625 C-1.10289307 4.64000244 -1.10812988 3.80734863 -1.11352539 2.94946289 C-1 1 -1 1 0 0 Z " fill="#FFFFFF" transform="translate(211,25)"/>
<path d="M0 0 C0.66 0.33 1.32 0.66 2 1 C2 1.66 2 2.32 2 3 C2.99 2.67 3.98 2.34 5 2 C7.64469181 6.53375739 9 11.77300975 9 17 C8.67 17.99 8.34 18.98 8 20 C8.39397335 22.63804589 8.39397335 22.63804589 9 25 C8.01 25.33 7.02 25.66 6 26 C6.99 26.66 7.98 27.32 9 28 C8.01 28.33 7.02 28.66 6 29 C6 29.66 6 30.32 6 31 C8.31 31 10.62 31 13 31 C13 31.33 13 31.66 13 32 C8.545 32.495 8.545 32.495 4 33 C4.66 33.66 5.32 34.32 6 35 C2.535 35.495 2.535 35.495 -1 36 C0 33 0 33 3 31 C4.38185087 27.7999243 5 25.36918965 5 21.875 C5 18.91218426 5.46964875 17.48682079 7 15 C6.34 15 5.68 15 5 15 C5 13.35 5 11.7 5 10 C4.01 9.67 3.02 9.34 2 9 C2 8.01 2 7.02 2 6 C1.34 6 0.68 6 0 6 C0 4.02 0 2.04 0 0 Z " fill="#9C9B95" transform="translate(27,11)"/>
<path d="M0 0 C0.66 0 1.32 0 2 0 C1 3 1 3 -1 4 C-1.33 4.99 -1.66 5.98 -2 7 C-1.34 7.33 -0.68 7.66 0 8 C-0.99 8.33 -1.98 8.66 -3 9 C-2.65213292 10.97536745 -2.65213292 10.97536745 -2 13 C-1.34 13.33 -0.68 13.66 0 14 C-0.33 15.65 -0.66 17.3 -1 19 C0.32 19.33 1.64 19.66 3 20 C2.67 21.65 2.34 23.3 2 25 C2.61875 25.12375 3.2375 25.2475 3.875 25.375 C6 26 6 26 8 28 C11.63253665 29.14357635 15.29741575 30.11137978 19 31 C18.67 31.66 18.34 32.32 18 33 C4.47358631 30.1108631 4.47358631 30.1108631 0 26 C-0.75 23.3125 -0.75 23.3125 -1 21 C-1.66 20.67 -2.32 20.34 -3 20 C-5.80447813 14.39104373 -4.78917907 8.99349509 -4 3 C-2.68 2.67 -1.36 2.34 0 2 C0 1.34 0 0.68 0 0 Z " fill="#CCCAC0" transform="translate(5,17)"/>
<path d="M0 0 C0.99 0.33 1.98 0.66 3 1 C1.80100302 4.0831351 0.52299523 7.06279492 -1 10 C2.69790046 8.76736651 2.9354846 7.79947549 4.6875 4.4375 C5.12449219 3.61121094 5.56148437 2.78492188 6.01171875 1.93359375 C6.33785156 1.29550781 6.66398437 0.65742187 7 0 C9.64 0 12.28 0 15 0 C15 0.33 15 0.66 15 1 C14.13375 0.95875 13.2675 0.9175 12.375 0.875 C8.23560411 2.25479863 7.9618813 3.33448353 5.9375 7.0625 C5.49277344 7.98160156 5.04804688 8.90070312 4.58984375 9.84765625 C3.80287109 10.91306641 3.80287109 10.91306641 3 12 C0.31640625 12.30859375 0.31640625 12.30859375 -2 12 C-3.14197565 8.47025708 -3.1000682 7.22624115 -1.5625 3.75 C-1.046875 2.8425 -0.53125 1.935 0 1 C0 0.67 0 0.34 0 0 Z " fill="#C5C2BA" transform="translate(21,49)"/>
<path d="M0 0 C0.33 0 0.66 0 1 0 C2.00144639 6.66010465 2.99236157 13.2765549 3.4375 20 C3.77149981 24.28528058 4.91471124 27.2085659 7 31 C6.505 32.485 6.505 32.485 6 34 C5.3490741 32.75264433 4.70448331 31.50198168 4.0625 30.25 C3.70285156 29.55390625 3.34320313 28.8578125 2.97265625 28.140625 C2 26 2 26 1.5625 23.875 C0.59953684 20.66512281 -2.24996689 19.6383176 -5 18 C-4.67 17.34 -4.34 16.68 -4 16 C-2.68 16.99 -1.36 17.98 0 19 C0.11320856 13.91696314 0.11320856 13.91696314 -1 9 C-0.87890625 6.73828125 -0.87890625 6.73828125 -0.5625 4.3125 C-0.46066406 3.50425781 -0.35882812 2.69601563 -0.25390625 1.86328125 C-0.12822266 0.94095703 -0.12822266 0.94095703 0 0 Z " fill="#BEBDB5" transform="translate(16,11)"/>
<path d="M0 0 C0.33 1.32 0.66 2.64 1 4 C1.99 4 2.98 4 4 4 C7.56412364 8.22414654 7.17488778 11.75336673 7 17 C7.33 17.33 7.66 17.66 8 18 C8.04063832 19.66617115 8.042721 21.33388095 8 23 C6.09598862 21.09598862 5.06479561 19.66574314 4.80078125 16.953125 C4.8113422 14.96766727 4.90084957 12.9830086 5 11 C4.01 10.67 3.02 10.34 2 10 C1.4375 8.0625 1.4375 8.0625 1 6 C0.34 5.34 -0.32 4.68 -1 4 C-0.625 1.875 -0.625 1.875 0 0 Z " fill="#B8B6AE" transform="translate(42,9)"/>
<path d="M0 0 C0.99 0 1.98 0 3 0 C3 4.95 3 9.9 3 15 C2.01 15 1.02 15 0 15 C0 10.05 0 5.1 0 0 Z " fill="#FFFFFF" transform="translate(181,31)"/>
<path d="M0 0 C10.19820972 -0.63299233 10.19820972 -0.63299233 13.375 1.875 C13.91125 2.57625 14.4475 3.2775 15 4 C17.63222962 5.25436187 17.63222962 5.25436187 20 6 C19.67 6.99 19.34 7.98 19 9 C13.25 6.375 13.25 6.375 11 3 C8.86951558 2.49368413 8.86951558 2.49368413 6.5 2.4375 C2.20754717 2.20754717 2.20754717 2.20754717 0 0 Z " fill="#B5B3AB" transform="translate(22,0)"/>
<path d="M0 0 C0.99 0.495 0.99 0.495 2 1 C2 1.66 2 2.32 2 3 C2.99 2.67 3.98 2.34 5 2 C6.4606285 4.64738916 7 5.89448334 7 9 C5.35 9 3.7 9 2 9 C2 8.01 2 7.02 2 6 C1.34 6 0.68 6 0 6 C0 4.02 0 2.04 0 0 Z " fill="#8A8984" transform="translate(27,11)"/>
<path d="M0 0 C1.33917825 5.30091392 2.25615418 10.58055186 3 16 C2.34 16 1.68 16 1 16 C-1.00274103 13.07291696 -2.09013771 10.96146892 -1.75390625 7.375 C-1.24224647 4.89080355 -0.67178095 2.44547598 0 0 Z " fill="#5E5F5C" transform="translate(21,26)"/>
<path d="M0 0 C1.32 0 2.64 0 4 0 C5.74881472 4.04413405 6.58963383 6.41535909 5 10.6875 C4.67 11.450625 4.34 12.21375 4 13 C3.34 12.67 2.68 12.34 2 12 C2.66 10.02 3.32 8.04 4 6 C3.34 6 2.68 6 2 6 C2 4.35 2 2.7 2 1 C1.34 0.67 0.68 0.34 0 0 Z " fill="#D3D1C8" transform="translate(30,20)"/>
<path d="M0 0 C0.99 0.33 1.98 0.66 3 1 C1.80100302 4.0831351 0.52299523 7.06279492 -1 10 C-0.01 10.33 0.98 10.66 2 11 C0.68 11.33 -0.64 11.66 -2 12 C-3.14197565 8.47025708 -3.1000682 7.22624115 -1.5625 3.75 C-1.046875 2.8425 -0.53125 1.935 0 1 C0 0.67 0 0.34 0 0 Z " fill="#B2B0A8" transform="translate(21,49)"/>
<path d="M0 0 C-1.12451727 2.9719385 -2.22293791 5.33440687 -4 8 C-4.99 8 -5.98 8 -7 8 C-4.18918919 0 -4.18918919 0 0 0 Z " fill="#232626" transform="translate(27,51)"/>
<path d="M0 0 C2.875 0.6875 2.875 0.6875 6 2 C7.375 4.625 7.375 4.625 8 7 C5.125 6.3125 5.125 6.3125 2 5 C0.625 2.375 0.625 2.375 0 0 Z " fill="#484A4A" transform="translate(11,32)"/>
<path d="M0 0 C0.66 0.99 1.32 1.98 2 3 C1.2884375 3.7734375 1.2884375 3.7734375 0.5625 4.5625 C-1.42809407 7.66782675 -1.65060818 10.36632504 -2 14 C-3.47910576 11.65083202 -4.02809996 10.36529953 -3.8125 7.5625 C-2.91237848 4.72365522 -1.63130502 2.48242068 0 0 Z " fill="#ABA8A1" transform="translate(7,5)"/>
<path d="M0 0 C0.66 0 1.32 0 2 0 C1 3 1 3 -1 4 C-1.33 4.99 -1.66 5.98 -2 7 C-1.34 7.33 -0.68 7.66 0 8 C-1.65 8.33 -3.3 8.66 -5 9 C-4.34 6.69 -3.68 4.38 -3 2 C-2.01 2 -1.02 2 0 2 C0 1.34 0 0.68 0 0 Z " fill="#C6C2BA" transform="translate(5,17)"/>
<path d="M0 0 C0.33 0 0.66 0 1 0 C1.66 4.62 2.32 9.24 3 14 C2.67 13.34 2.34 12.68 2 12 C1.34 12 0.68 12 0 12 C-1.03159626 8.90521121 -0.97482862 7.47368607 -0.5625 4.3125 C-0.46066406 3.50425781 -0.35882813 2.69601563 -0.25390625 1.86328125 C-0.17011719 1.24839844 -0.08632812 0.63351562 0 0 Z " fill="#999994" transform="translate(16,11)"/>
<path d="M0 0 C1.0625 1.875 1.0625 1.875 2 4 C1.67 4.66 1.34 5.32 1 6 C1.33 6.33 1.66 6.66 2 7 C1.67 7.66 1.34 8.32 1 9 C0.01 9 -0.98 9 -2 9 C-1.125 2.25 -1.125 2.25 0 0 Z " fill="#94948F" transform="translate(34,31)"/>
<path d="M0 0 C1.32 0 2.64 0 4 0 C4 1.32 4 2.64 4 4 C2.68 3.67 1.36 3.34 0 3 C0 2.01 0 1.02 0 0 Z " fill="#FFFFFF" transform="translate(204,42)"/>
<path d="M0 0 C1.32 0.33 2.64 0.66 4 1 C3.67 1.99 3.34 2.98 3 4 C2.01 3.67 1.02 3.34 0 3 C0 2.01 0 1.02 0 0 Z " fill="#FFFFFF" transform="translate(181,26)"/>
</svg>
