<svg xmlns="http://www.w3.org/2000/svg" xmlns:xlink="http://www.w3.org/1999/xlink" width="233.85" height="60.522" viewBox="0 0 233.85 60.522">
  <defs>
    <clipPath id="clip-path">
      <rect id="Rectangle_274" data-name="Rectangle 274" width="170.801" height="20.142" transform="translate(0 0)" fill="none"/>
    </clipPath>
  </defs>
  <g id="Group_275" data-name="Group 275" transform="translate(62.049 19.947)">
    <g id="Group_274" data-name="Group 274" transform="translate(1 5)">
      <g id="Group_273" data-name="Group 273" clip-path="url(#clip-path)">
        <path id="Path_3839" data-name="Path 3839" d="M27.3,6.264h4.482v13.5H27.3V18.522a4.762,4.762,0,0,1-3.834,1.62A5.823,5.823,0,0,1,18.94,18.1a7.355,7.355,0,0,1-1.822-5.09,7.356,7.356,0,0,1,1.822-5.09,5.826,5.826,0,0,1,4.523-2.038A4.762,4.762,0,0,1,27.3,7.506ZM22.41,15.147a3,3,0,0,0,4.1,0,2.939,2.939,0,0,0,.783-2.133,2.939,2.939,0,0,0-.783-2.133,3,3,0,0,0-4.1,0,2.939,2.939,0,0,0-.783,2.133,2.939,2.939,0,0,0,.783,2.133" fill="#fff"/>
        <path id="Path_3840" data-name="Path 3840" d="M38.612,10.148q0,.344.706.571l1.645.528,1.952.627a3.313,3.313,0,0,1,1.7,1.3,4.1,4.1,0,0,1,.688,2.437,3.778,3.778,0,0,1-1.738,3.43,7.519,7.519,0,0,1-4.125,1.106q-4.535,0-6.048-3.213l3.915-1.97a2.037,2.037,0,0,0,2.107,1.484q1.214,0,1.215-.721c0-.248-.231-.452-.69-.609l-1.622-.556L36.392,13.9a3.45,3.45,0,0,1-1.67-1.246,3.622,3.622,0,0,1-.674-2.228,3.927,3.927,0,0,1,1.6-3.348A6.3,6.3,0,0,1,39.5,5.886q3.994,0,5.561,3.132l-3.78,1.7a1.835,1.835,0,0,0-1.674-1.161q-1,0-1,.59" fill="#fff"/>
        <path id="Path_3841" data-name="Path 3841" d="M56.512,6.264h4.481v13.5H56.512V18.522a4.762,4.762,0,0,1-3.834,1.62A5.821,5.821,0,0,1,48.155,18.1a7.351,7.351,0,0,1-1.823-5.09,7.352,7.352,0,0,1,1.823-5.09,5.825,5.825,0,0,1,4.523-2.038,4.762,4.762,0,0,1,3.834,1.62Zm-4.888,8.883a3,3,0,0,0,4.1,0,2.94,2.94,0,0,0,.784-2.133,2.94,2.94,0,0,0-.784-2.133,3,3,0,0,0-4.1,0,2.939,2.939,0,0,0-.782,2.133,2.939,2.939,0,0,0,.782,2.133" fill="#fff"/>
        <path id="Path_3842" data-name="Path 3842" d="M78.569,5.94A4.824,4.824,0,0,1,82.228,7.4a5.477,5.477,0,0,1,1.391,3.942v8.424H81.837V11.34a3.8,3.8,0,0,0-.9-2.713,3.132,3.132,0,0,0-2.389-.958,3.529,3.529,0,0,0-2.714,1.12,5.008,5.008,0,0,0-1.039,3.5v7.478H73.007V11.34a3.946,3.946,0,0,0-.85-2.727,2.949,2.949,0,0,0-2.309-.944A3.749,3.749,0,0,0,67.094,8.8a4.748,4.748,0,0,0-1.133,3.484v7.478H64.178V6.264h1.783V8.235a4.625,4.625,0,0,1,4.13-2.295A4.193,4.193,0,0,1,74.2,8.4,4.762,4.762,0,0,1,78.569,5.94" fill="#fff"/>
        <path id="Path_3843" data-name="Path 3843" d="M93.312,5.939A6.129,6.129,0,0,1,98.159,8.06a7.372,7.372,0,0,1,1.848,5.007c0,.2-.017.478-.053.837H88.1a4.846,4.846,0,0,0,1.741,3.254,5.557,5.557,0,0,0,3.632,1.2,5.321,5.321,0,0,0,2.659-.633,4.3,4.3,0,0,0,1.689-1.662l1.564.918a6.409,6.409,0,0,1-2.428,2.269,7.236,7.236,0,0,1-3.51.837,7.017,7.017,0,0,1-5.186-2,6.882,6.882,0,0,1-2-5.076,6.95,6.95,0,0,1,1.971-5.049,6.768,6.768,0,0,1,5.076-2.026m0,1.729A5.053,5.053,0,0,0,88.1,12.177H98.172a5.039,5.039,0,0,0-1.648-3.322,4.768,4.768,0,0,0-3.212-1.187" fill="#fff"/>
        <path id="Path_3844" data-name="Path 3844" d="M114.452.864h1.782v18.9h-1.782V17.118A6.042,6.042,0,0,1,109,20.088a6.685,6.685,0,0,1-4.926-2.051,6.852,6.852,0,0,1-2.039-5.023,6.852,6.852,0,0,1,2.039-5.022A6.686,6.686,0,0,1,109,5.94a6.041,6.041,0,0,1,5.454,2.971Zm-9.1,15.944a5.378,5.378,0,0,0,7.559,0,5.185,5.185,0,0,0,1.539-3.794,5.186,5.186,0,0,0-1.539-3.794,5.378,5.378,0,0,0-7.559,0,5.183,5.183,0,0,0-1.54,3.794,5.182,5.182,0,0,0,1.54,3.794" fill="#fff"/>
        <path id="Path_3845" data-name="Path 3845" d="M121.823,3.024a1.3,1.3,0,0,1-1.836,0,1.25,1.25,0,0,1-.378-.918,1.251,1.251,0,0,1,.378-.918,1.3,1.3,0,0,1,1.836,0,1.251,1.251,0,0,1,.378.918,1.25,1.25,0,0,1-.378.918m-1.808,3.24H121.8v13.5h-1.781Z" fill="#fff"/>
        <path id="Path_3846" data-name="Path 3846" d="M137.187,6.264h1.782v13.5h-1.782V17.118a6.045,6.045,0,0,1-5.454,2.97,6.689,6.689,0,0,1-4.928-2.051,6.851,6.851,0,0,1-2.038-5.023,6.851,6.851,0,0,1,2.038-5.022,6.69,6.69,0,0,1,4.928-2.052,6.044,6.044,0,0,1,5.454,2.971Zm-9.1,10.544a5.38,5.38,0,0,0,7.561,0,5.189,5.189,0,0,0,1.539-3.794,5.19,5.19,0,0,0-1.539-3.794,5.38,5.38,0,0,0-7.561,0,5.19,5.19,0,0,0-1.539,3.794,5.189,5.189,0,0,0,1.539,3.794" fill="#fff"/>
        <path id="Path_3847" data-name="Path 3847" d="M144.773,20.142a2.736,2.736,0,0,1-2.012-.823,2.787,2.787,0,0,1,.014-3.969,2.75,2.75,0,0,1,2-.824,2.806,2.806,0,0,1,1.984,4.793,2.7,2.7,0,0,1-1.984.823" fill="#fff"/>
        <path id="Path_3848" data-name="Path 3848" d="M154.047,4.387a2.542,2.542,0,0,1-3.645,0,2.493,2.493,0,0,1-.769-1.822A2.45,2.45,0,0,1,150.4.756a2.575,2.575,0,0,1,3.645,0,2.443,2.443,0,0,1,.769,1.809,2.485,2.485,0,0,1-.769,1.822m-4.064,1.877h4.482v13.5h-4.482Z" fill="#fff"/>
        <path id="Path_3849" data-name="Path 3849" d="M163.592,20.141a7.023,7.023,0,0,1-5.1-2.065,6.821,6.821,0,0,1-2.105-5.063,6.819,6.819,0,0,1,2.105-5.062,7.352,7.352,0,0,1,10.22,0,6.838,6.838,0,0,1,2.093,5.062,6.84,6.84,0,0,1-2.093,5.063,7,7,0,0,1-5.116,2.065m0-4.32a2.629,2.629,0,0,0,1.957-.782,2.765,2.765,0,0,0,.77-2.026,2.763,2.763,0,0,0-.77-2.025,2.63,2.63,0,0,0-1.957-.782,2.6,2.6,0,0,0-1.931.782,2.77,2.77,0,0,0-.769,2.025,2.772,2.772,0,0,0,.769,2.026,2.6,2.6,0,0,0,1.931.782" fill="#fff"/>
      </g>
      <path id="Path_3838" data-name="Path 3838" d="M10.152.864V7.857H4.833V.864H0v18.9H4.833V12.5h5.319v7.263h4.806V.864Z" fill="#fff"/>
    </g>
    <g id="Group_276" data-name="Group 276" transform="translate(-333.226 -148.942)">
      <path id="Union_23" data-name="Union 23" d="M18.922,58.585a2.716,2.716,0,0,1-1.044-3.506s.141-.27.919-1.476,1.742-2.407,2.194-3.348a4.922,4.922,0,0,0,.706-2.38,9.182,9.182,0,0,1-2.367-.529,5.126,5.126,0,0,1-1.667-1.154,10.987,10.987,0,0,1-5.058-.5,9.786,9.786,0,0,1-3.7-3.208,3.056,3.056,0,0,1-3.358-1.539,3.592,3.592,0,0,1,.31-3.773s-2.831-1.185-3.612-2.684.486-3.311.486-3.311A3.846,3.846,0,0,1,.01,27.148c.139-2.342,2.218-2.269,2.231-2.754s-.719-.862-.979-1.465a2.936,2.936,0,0,1-.208-1.244,3.807,3.807,0,0,1,.587-1.628,4.633,4.633,0,0,1,1.411-1.181,11.61,11.61,0,0,0,1.531-.715c.509-.322.505-.572.505-.572a2.675,2.675,0,0,1-.711-1.019A4.228,4.228,0,0,1,4.2,15.146,1.629,1.629,0,0,1,3.56,14.3a3.424,3.424,0,0,1,0-1.341A11.513,11.513,0,0,1,4.9,9.511c1-1.651,2.45-3.673,2.45-3.673A9.135,9.135,0,0,1,8.834,3.568a6.012,6.012,0,0,1,2-1.3,9.953,9.953,0,0,1,3.319-.754,3.063,3.063,0,0,1,2.419.879,2,2,0,0,1,.974-.125,3.184,3.184,0,0,1,1,.388l-.005-.031.081.063A16.724,16.724,0,0,1,21.33.971a9.933,9.933,0,0,1,2.621-.8A14.2,14.2,0,0,1,26.236,0a12.616,12.616,0,0,1,2.2.269,2.059,2.059,0,0,0,.95.312c.6.059,1.79.1,1.79.1,3.83.208,4.269,4.758,4.269,4.758a2.013,2.013,0,0,1,1.324-.407c.807.037,1.636,1.044,1.636,1.044a2.255,2.255,0,0,1,2.049.667,2.458,2.458,0,0,1,.773,1.526,5.2,5.2,0,0,1,.151,1.716c-.607,2.859-.008,2.448,1.3,2.752a2.716,2.716,0,0,1,1.951,3.847,4.54,4.54,0,0,1,1.935,1,4.428,4.428,0,0,1,.988,1.922,3.215,3.215,0,0,1,.11.84,6.938,6.938,0,0,1-.11,1.063,2.506,2.506,0,0,0-.514,1.155,5.2,5.2,0,0,0,.121.944,5.116,5.116,0,0,1-.682,2.425,2.226,2.226,0,0,1,.984.726,4.065,4.065,0,0,1,1.064,2.914,4.813,4.813,0,0,1-3.278,4.557,4.076,4.076,0,0,1,1.069,1.079,2.526,2.526,0,0,1,.3,1.272,2.943,2.943,0,0,1-.345,1.6,3.493,3.493,0,0,1-1.232,1.163c-.048.083.036.338.076.666a9.116,9.116,0,0,1,.047,1.246A5.707,5.707,0,0,1,43.2,44.623a10.54,10.54,0,0,1-4.645,1.4,4.127,4.127,0,0,1-1.41,1.689,5.847,5.847,0,0,1-2.364.664h-5.6l-1.029.7c-.592.986-.849,1.99-1.954,4.07s-2.492,4.22-2.492,4.22l-.361.986a5,5,0,0,1-2.541.777A3.43,3.43,0,0,1,18.922,58.585Z" transform="translate(271.919 129.691)" fill="#0e1212"/>
      <g id="Group_236" data-name="Group 236" transform="translate(271.177 128.995)">
        <g id="Group_233" data-name="Group 233" transform="translate(0 0)">
          <path id="Path_78" data-name="Path 78" d="M4169.4,2481.5h0a4.114,4.114,0,0,1-2.253-.654,3.372,3.372,0,0,1-1.294-4.4c.023-.046.186-.347.958-1.545.289-.447.6-.893.906-1.326a15.789,15.789,0,0,0,1.245-1.947,7.82,7.82,0,0,0,.56-1.475,8.494,8.494,0,0,1-1.861-.49,5.88,5.88,0,0,1-1.648-1.067c-.3.03-.767.064-1.329.064a9.976,9.976,0,0,1-3.75-.655,10.085,10.085,0,0,1-3.753-3.1c-.1.008-.219.014-.345.014a3.57,3.57,0,0,1-3.313-1.981,4.178,4.178,0,0,1-.059-3.783,7.712,7.712,0,0,1-3.24-2.668,3.763,3.763,0,0,1,.118-3.285,4.488,4.488,0,0,1-2.426-4.42,3.193,3.193,0,0,1,2.039-2.914l-.077-.082a3.171,3.171,0,0,1-.655-.905,3.6,3.6,0,0,1-.263-1.576,4.447,4.447,0,0,1,.714-1.976,5.224,5.224,0,0,1,1.655-1.394,12.608,12.608,0,0,0,1.432-.656,3.089,3.089,0,0,1-.438-.8,4.373,4.373,0,0,1-.22-1.332,2.231,2.231,0,0,1-.611-.974,4.045,4.045,0,0,1-.015-1.675,12.168,12.168,0,0,1,1.426-3.676c.927-1.523,2.2-3.321,2.439-3.661a9.645,9.645,0,0,1,1.593-2.406,6.718,6.718,0,0,1,2.258-1.472,10.526,10.526,0,0,1,3.543-.8h.1a3.98,3.98,0,0,1,2.514.8,2.579,2.579,0,0,1,.892-.035,3.355,3.355,0,0,1,.9.292,16.382,16.382,0,0,1,2.484-1.527,10.6,10.6,0,0,1,2.826-.862,15.06,15.06,0,0,1,2.169-.175l.225,0a13.26,13.26,0,0,1,2.333.286l.141.032.116.085h0a1.466,1.466,0,0,0,.607.181c.589.058,1.743.092,1.743.092,2.963.161,4.317,2.607,4.774,4.439a2.737,2.737,0,0,1,.7-.091l.129,0a3.1,3.1,0,0,1,1.876,1.006l.122,0a3.052,3.052,0,0,1,2.144.908l.153.167a3.056,3.056,0,0,1,.811,1.7,5.826,5.826,0,0,1,.162,1.969c-.3,1.437-.232,1.753-.2,1.817a2.188,2.188,0,0,1,.4.049c.173.029.364.061.572.109a3.75,3.75,0,0,1,2.491,1.989,3.452,3.452,0,0,1,.169,2.081,4.549,4.549,0,0,1,1.56.964,5.023,5.023,0,0,1,1.176,2.268h0a3.746,3.746,0,0,1,.126.987,7.549,7.549,0,0,1-.122,1.191l-.034.184-.123.142h0a1.83,1.83,0,0,0-.352.8,1.2,1.2,0,0,0,.045.292,3.24,3.24,0,0,1,.082.515,5.105,5.105,0,0,1-.462,2.177,3.912,3.912,0,0,1,.591.551,4.756,4.756,0,0,1,1.237,3.372,5.384,5.384,0,0,1-2.711,4.743,3.287,3.287,0,0,1,.408.546,3.192,3.192,0,0,1,.4,1.608,3.582,3.582,0,0,1-.445,1.975,3.712,3.712,0,0,1-1.1,1.155c.012.072.024.15.034.231a9.843,9.843,0,0,1,.052,1.356,6.381,6.381,0,0,1-2.237,4,10.425,10.425,0,0,1-4.614,1.5,4.612,4.612,0,0,1-1.486,1.621,6.526,6.526,0,0,1-2.7.768h-5.423l-.722.491a13.909,13.909,0,0,0-.626,1.32c-.286.656-.641,1.473-1.234,2.589-1.011,1.9-2.233,3.821-2.48,4.206l-.411,1.123-.184.126A5.705,5.705,0,0,1,4169.4,2481.5Zm-2.87-14.376.25.277a4.468,4.468,0,0,0,1.417.977,8.393,8.393,0,0,0,2.154.478l.556.044.079.552a5.394,5.394,0,0,1-.768,2.779,16.647,16.647,0,0,1-1.361,2.144c-.294.418-.6.849-.875,1.281-.729,1.13-.884,1.414-.891,1.426a2,2,0,0,0,.805,2.591,2.742,2.742,0,0,0,1.5.435,4.266,4.266,0,0,0,1.972-.551l.3-.83.042-.066c.014-.021,1.384-2.139,2.462-4.168.567-1.069.911-1.858,1.188-2.492a13.316,13.316,0,0,1,.784-1.609l.079-.131,1.333-.907h5.815a5.068,5.068,0,0,0,2-.558,3.444,3.444,0,0,0,1.139-1.371l.169-.392.427-.029a9.9,9.9,0,0,0,4.275-1.267,5.024,5.024,0,0,0,1.678-3,9.785,9.785,0,0,0-.048-1.071c-.013-.1-.031-.2-.047-.282a1.11,1.11,0,0,1,.06-.817l.075-.129.121-.087c.043-.031.1-.066.162-.107a2.527,2.527,0,0,0,.879-.848,2.278,2.278,0,0,0,.249-1.177l-.005-.055,0-.055a1.839,1.839,0,0,0-.207-.879,3.337,3.337,0,0,0-.859-.854l-1.2-.816,1.383-.426a4.093,4.093,0,0,0,2.786-3.888,3.375,3.375,0,0,0-.89-2.457,1.782,1.782,0,0,0-.654-.517l-.815-.271.407-.751a4.368,4.368,0,0,0,.587-2.035,1.786,1.786,0,0,0-.05-.287,2.12,2.12,0,0,1-.064-.794,3.182,3.182,0,0,1,.544-1.339,5.553,5.553,0,0,0,.072-.78,2.565,2.565,0,0,0-.082-.642,3.814,3.814,0,0,0-.812-1.628,3.855,3.855,0,0,0-1.6-.814l-.84-.193.363-.781a2.336,2.336,0,0,0,.048-1.7,2.407,2.407,0,0,0-1.583-1.194c-.119-.025-.281-.052-.426-.076a1.784,1.784,0,0,1-1.325-.649c-.349-.511-.352-1.226-.01-2.832h0a5.183,5.183,0,0,0-.149-1.419,1.779,1.779,0,0,0-.473-1.061l-.148-.164a1.606,1.606,0,0,0-1.128-.466,1.119,1.119,0,0,0-.227.02l-.417.1-.287-.327a2.275,2.275,0,0,0-1.132-.793h-.005a1.415,1.415,0,0,0-.831.239l-1.013.873-.134-1.332c-.017-.162-.437-3.959-3.614-4.132-.033,0-1.2-.037-1.82-.1a2.9,2.9,0,0,1-1.145-.348,11.97,11.97,0,0,0-1.948-.229l-.193,0a14,14,0,0,0-1.964.16,9.348,9.348,0,0,0-2.437.744,16.22,16.22,0,0,0-2.583,1.639l-.384.3-.416-.26a2.63,2.63,0,0,0-.8-.328,1.261,1.261,0,0,0-.6.078l-.479.2-.333-.4a2.408,2.408,0,0,0-1.791-.623,9.442,9.442,0,0,0-3.128.7,5.408,5.408,0,0,0-1.779,1.152,8.471,8.471,0,0,0-1.349,2.069l-.028.063-.041.057c-.015.02-1.442,2.021-2.421,3.63a10.908,10.908,0,0,0-1.249,3.217,2.665,2.665,0,0,0-.017,1.017.935.935,0,0,0,.347.451l.335.22-.012.406a3.484,3.484,0,0,0,.134,1.146,2,2,0,0,0,.506.725l.239.2.008.317c0,.192-.073.692-.83,1.171a11.822,11.822,0,0,1-1.652.776,3.989,3.989,0,0,0-1.094.935,3.106,3.106,0,0,0-.461,1.293h0a2.239,2.239,0,0,0,.154.9,2.068,2.068,0,0,0,.391.5,1.8,1.8,0,0,1,.644,1.257c-.016.583-.528.822-.9,1a1.861,1.861,0,0,0-1.331,1.78,3.15,3.15,0,0,0,2.209,3.316l.941.267-.557.8c-.009.013-1.013,1.49-.439,2.59.543,1.042,2.54,2.059,3.264,2.364l.855.359-.584.721a2.883,2.883,0,0,0-.232,3.018,2.162,2.162,0,0,0,2.074,1.223,2.616,2.616,0,0,0,.509-.046l.465-.1.269.4a9.142,9.142,0,0,0,3.4,2.952,8.6,8.6,0,0,0,3.208.545,11.326,11.326,0,0,0,1.477-.09Z" transform="translate(-4147.901 -2420.975)" fill="#fef9ed"/>
          <path id="Path_3704" data-name="Path 3704" d="M6004.664,2386.26a.7.7,0,0,1-.34-1.3,6.813,6.813,0,0,0,2.024-1.881,7.236,7.236,0,0,0,.707-1.592,5.55,5.55,0,0,1,.853-1.762,1.376,1.376,0,0,0,.451-.914.452.452,0,0,0-.221-.256l-.709-.356.429-.665c.021-.03,2.016-2.991,2.311-4.8a2.089,2.089,0,0,0-.8-2.155l-.7-.424.533-.624c.717-.84,1.846-2.5,1.824-3.371-.023-.914-1.609-1.376-1.625-1.381l-.875-.241.458-.784a3.137,3.137,0,0,0,.521-2.178c-.234-.5-1.329-.884-2.032-1l-.475-.08-.095-.472a13.189,13.189,0,0,0-.886-2.823,1.519,1.519,0,0,0-.839-.821l-.555-.135,0-.577a12.461,12.461,0,0,0-.316-3.292,5.127,5.127,0,0,0-.859-1.813,3.453,3.453,0,0,0-.479.352l-.87.769-.27-1.129a6.374,6.374,0,0,0-.61-1.588c-.056-.09-.1-.161-.145-.218l-1.791.59.085-1.046a5.617,5.617,0,0,0-.469-2.592,7.559,7.559,0,0,0-1.966-2.224.7.7,0,0,1,.832-1.117,9.016,9.016,0,0,1,2.38,2.719,6.38,6.38,0,0,1,.6,2.316l.29-.095c.593-.288,1.091.5,1.359.923a5.713,5.713,0,0,1,.5,1.056,1.262,1.262,0,0,1,.877-.135c.831.222,1.512,1.613,1.873,2.839a12.589,12.589,0,0,1,.379,3.254,3.169,3.169,0,0,1,1.223,1.3,12.547,12.547,0,0,1,.93,2.765,3.934,3.934,0,0,1,2.592,1.68,3.569,3.569,0,0,1-.22,2.754,2.894,2.894,0,0,1,1.874,2.39c.032,1.271-1.082,2.924-1.729,3.774a3.517,3.517,0,0,1,.855,3.058,15.948,15.948,0,0,1-2.186,4.824,1.671,1.671,0,0,1,.359.72,2.466,2.466,0,0,1-.755,2.134,4.946,4.946,0,0,0-.594,1.318,8.328,8.328,0,0,1-.869,1.911,8.168,8.168,0,0,1-2.5,2.313A.694.694,0,0,1,6004.664,2386.26Z" transform="translate(-5978.107 -2339.593)" fill="#fef9ed"/>
          <path id="Path_3705" data-name="Path 3705" d="M866.843,622.247a.139.139,0,0,1-.108-.227,21.664,21.664,0,0,0,1.847-2.745,24.49,24.49,0,0,0,1.406-3.134.139.139,0,1,1,.262.093s-.153.429-.4,1.029a22.329,22.329,0,0,1-1.021,2.146,20.1,20.1,0,0,1-1.246,1.951c-.361.5-.626.831-.628.834A.139.139,0,0,1,866.843,622.247Z" transform="translate(-845.094 -565.824)" fill="#fff"/>
        </g>
        <path id="Path_3706" data-name="Path 3706" d="M6002.954,2423.555c0-.083-.416-.609-.979-1.583a30.569,30.569,0,0,1-4.463-1.256,28.383,28.383,0,0,1-5.042-2.661s2.907,1.358,5.222,2.2a28.467,28.467,0,0,0,4.041,1.161c-.438-.772-.844-1.465-1.311-2.467-.022-.048-2.484-.952-4.834-2.213a28.93,28.93,0,0,1-4.4-2.858s2.622,1.53,4.852,2.613a41.09,41.09,0,0,0,4.072,1.717,17.881,17.881,0,0,1-.637-2.294c-.006-.029-1.488-.945-2.988-1.732s-2.276-.913-3.015-1.415a16.215,16.215,0,0,1-4.281-3.943,27.287,27.287,0,0,0,4.525,3.722c.937.6,1.549.465,3,1.2a23.919,23.919,0,0,1,2.632,1.571c-.229-1.121-.431-2.366-.593-3.5a6.532,6.532,0,0,1-3.366-1.323c-1.014-.75-1.894-1.887-2.92-2.83-1.751-1.608-3.349-3.021-3.355-3.066,0,0,1.7,1.225,3.547,2.74,1.057.867,2.144,2,3.03,2.62,2.395,1.687,2.912,1.086,2.912,1.086a22.009,22.009,0,0,1-.244-2.719c0-.1-.076-.493-.123-1.1a11.109,11.109,0,0,1-1.166-.287,4.935,4.935,0,0,1-1.207-.628,33.675,33.675,0,0,1-2.694-4.075s1.467,1.916,2.725,3.394a2.716,2.716,0,0,0,1.353.823,3.318,3.318,0,0,0,.988.233c-.048-.753-.078-1.7-.159-2.7-.024-.289-.538-1.041-.559-1.263a8.475,8.475,0,0,0-2.234-3.729,15.275,15.275,0,0,0-4.233-2.627,12.65,12.65,0,0,1,3.49,1.421,7.356,7.356,0,0,1,2.406,2.414,6.171,6.171,0,0,1,.968,2.177c-.066-1.207-.014-2.15-.081-2.642a7.455,7.455,0,0,0-.469-1.948,12.909,12.909,0,0,0-1.46-3.142,9.293,9.293,0,0,0-1.934-1.828,3.9,3.9,0,0,1,2.074,1.31,7.988,7.988,0,0,1,1.32,2.6c-.015-.124.183.157.164,0-.447-3.649-1.139-9.322-1.422-9.708a10.316,10.316,0,0,1,.953,2.159,83.178,83.178,0,0,1,1.41,8.971,8.455,8.455,0,0,0,.58-1.687c.462-1.669,1.082-4.281,1.091-4.207.012.1-.782,4.342-.945,5.126-.218,1.051-.6,1.809-.59,2.014.09,1.383.195,3.44.59,3.591a14.623,14.623,0,0,0,1.868-3.771c.679-1.906,1.142-4.624,1.194-4.63a28.9,28.9,0,0,1-.72,4.555,36.9,36.9,0,0,1-1.818,4.154c-.091.251-.357.822-.352.891a21.467,21.467,0,0,1-.172,2.5c.1,1.436.383,5.735,1.027,7.371.273.692.336,1.568.487,1.718s.178-.182.229-.6.611-6.1,1.173-7.505,2.03-6.485,2.309-7.657.363-1.461.363-1.461-.864,5.034-1.408,6.827a38.677,38.677,0,0,0-1.263,5.279c-.146,1.22-.89,5.068-.937,5.565a4.243,4.243,0,0,0,.445,2.13c.352.566.926,2.618.984,1.771a34.632,34.632,0,0,1,.505-4.432,37.787,37.787,0,0,1,1.947-4.354,18.7,18.7,0,0,0,.995-3.4c.076-.464.329-1.365.329-1.365a22.745,22.745,0,0,1-.416,3.036c-.293,1.219-2.229,5.846-2.417,6.434a21.794,21.794,0,0,0-.534,5.161c.153,1.279.534,1.449.534,1.449a11.792,11.792,0,0,1,.771-3.142c.51-.895,3.053-5.565,3.228-5.982a7.145,7.145,0,0,1,.561-.987s-1.272,2.812-1.515,3.415-1.986,3.737-2.1,4.374-.729,2.585-.311,3.7a17.824,17.824,0,0,0,1.216,2.43,22.822,22.822,0,0,0-1.912-1.961,23.5,23.5,0,0,0-4.716-1.566c-.723-.1-3.849-.833-3.849-.833s2.709.325,4.723.683a17.24,17.24,0,0,1,3.154,1.059C6002.963,2423.886,6002.963,2423.715,6002.954,2423.555Z" transform="translate(-5980.921 -2380.016)" fill="#fff"/>
        <g id="Group_234" data-name="Group 234" transform="translate(24.865 5.493)">
          <path id="Path_3707" data-name="Path 3707" d="M941.231,551.7a28.4,28.4,0,0,1,3.759,0,28.823,28.823,0,0,1,3.731.571,28.81,28.81,0,0,0-3.355-.815,32.885,32.885,0,0,0-3.573-.382Z" transform="translate(-937.569 -512.376)" fill="#fff"/>
          <path id="Path_3708" data-name="Path 3708" d="M950.237,517.055l.788-2.017a3.124,3.124,0,0,0,.892.307,38.266,38.266,0,0,0,4.988,0,29.216,29.216,0,0,0,5.848-1.116,24.489,24.489,0,0,1-4.6,1.41,20.713,20.713,0,0,1-4.773.31A5.15,5.15,0,0,0,950.237,517.055Z" transform="translate(-945.739 -478.949)" fill="#fff"/>
          <path id="Path_3709" data-name="Path 3709" d="M6229.743,2716.853l.713-1.218a14.213,14.213,0,0,1,3.474-1.383,54.328,54.328,0,0,1,5.485-1.069,46.253,46.253,0,0,0-6.021,1.611,10.12,10.12,0,0,0-3.419,1.969Z" transform="translate(-6224.079 -2681.53)" fill="#fff"/>
          <path id="Path_3710" data-name="Path 3710" d="M6233.087,2644.873l-.413-.726s.494-.4,1.163-.947c.517-.426,1.127-1.122,1.575-1.423s1.142-.768,2.313-1.45a25.445,25.445,0,0,0,3.569-2.206c1.4-1.293,2.558-2.26,2.558-2.26a13.256,13.256,0,0,1-2.558,2.7c-1.812,1.437-4.366,2.79-5.15,3.4A27.556,27.556,0,0,0,6233.087,2644.873Z" transform="translate(-6226.739 -2611.385)" fill="#fff"/>
          <path id="Path_3711" data-name="Path 3711" d="M6254.854,2568.493l-.269-.828a1.1,1.1,0,0,0,.972-.1,52.54,52.54,0,0,0,4.068-3.377,19.96,19.96,0,0,0,3.465-5.028,14.243,14.243,0,0,1-1.455,3.036,16.574,16.574,0,0,1-2.729,3.12C6257.524,2566.51,6254.854,2568.493,6254.854,2568.493Z" transform="translate(-6246.617 -2541.802)" fill="#fff"/>
          <path id="Path_3712" data-name="Path 3712" d="M6254.445,2493.96l.854-1.722a36.07,36.07,0,0,0,3.086-3.094c.649-.892,2.8-8.847,2.8-8.847s-1.7,7.944-2.156,8.847S6254.445,2493.96,6254.445,2493.96Z" transform="translate(-6246.489 -2470.26)" fill="#fff"/>
          <path id="Path_3713" data-name="Path 3713" d="M6261.37,2500.3a46.962,46.962,0,0,0,2.106-5.437c.875-2.831.334-3.98.334-3.98a15.777,15.777,0,0,1-.943,4.917c-.423,1.181-.744,1.549-1.084,2.507a3.461,3.461,0,0,1-.768,1.454Z" transform="translate(-6252.45 -2479.863)" fill="#fff"/>
          <path id="Path_3714" data-name="Path 3714" d="M6178.026,2390.724s-1.019-5.076-.927-5.62,1.128-1.042,1.358-2.287a19.474,19.474,0,0,0-.034-4.906c-.178-.8-.374-.916-.374-.916s.543,4.764-.2,6.078-.793,1.455-.921,1.427a8.417,8.417,0,0,1-.866-2.378,26.125,26.125,0,0,0-1.795-3.8,5.154,5.154,0,0,0,.313-2.965,4.676,4.676,0,0,0-.7-1.514,6,6,0,0,1,.45,2.8,8.512,8.512,0,0,1-.327,1.222,20.456,20.456,0,0,0-2.039-2.758,31.36,31.36,0,0,0-3.232-2.938,35.336,35.336,0,0,1,3.232,3.643c.487.879,3.412,5.83,3.246,6.09s-.437-.316-1.244-.57a16.622,16.622,0,0,0-1.854-.429s2.509.748,2.958,1.469a6.131,6.131,0,0,1,.815,1.515,11.134,11.134,0,0,1,.475,1.979s-1.537-1.388-1.982-1.66a2.225,2.225,0,0,0-.982-.283s.422.266.842.573a9.231,9.231,0,0,1,2.186,2,10.257,10.257,0,0,1,.678,2.452,25.959,25.959,0,0,1,.291,3.127,1.957,1.957,0,0,0,.456-.589A2.377,2.377,0,0,0,6178.026,2390.724Z" transform="translate(-6168.729 -2372.174)" fill="#fff"/>
        </g>
      </g>
    </g>
  </g>
</svg>
