<svg xmlns="http://www.w3.org/2000/svg" xmlns:xlink="http://www.w3.org/1999/xlink" width="1080" height="1080" viewBox="0 0 1080 1080">
  <defs>
    <clipPath id="clip-Hasamedia-logo-White-transperent">
      <rect width="1080" height="1080"/>
    </clipPath>
  </defs>
  <g id="Hasamedia-logo-White-transperent" clip-path="url(#clip-Hasamedia-logo-White-transperent)">
    <rect width="1080" height="1080"/>
    <g id="Group_239" data-name="Group 239" transform="translate(0 85)">
      <g id="Group_236" data-name="Group 236" transform="translate(-466.676 55)">
        <g id="Group_233" data-name="Group 233" transform="translate(103.951 -0.981)">
          <path id="Path_78" data-name="Path 78" d="M4347.994,3021.854s-11.467,23.244,11.252,37.768,47.61-2.509,47.61-2.509l3.893-10.626s14.942-23.049,26.847-45.46,14.678-33.225,21.051-43.843l11.083-7.543h60.339s15.305-.814,25.469-7.148,15.187-18.19,15.187-18.19,32.267-1.991,50.042-15.1,21.062-37.333,21.062-37.333a98.61,98.61,0,0,0-.506-13.422c-.431-3.535-1.343-6.275-.822-7.173,2.325-1.668,8.624-4.792,13.268-12.526s3.717-17.265,3.717-17.265a27.184,27.184,0,0,0-3.236-13.705c-3.688-6.334-11.516-11.63-11.516-11.63s35.489-10.894,35.313-49.088c-.078-16.958-6.457-25.73-11.457-31.4-5.859-6.644-10.6-7.817-10.6-7.817s8.014-13.58,7.344-26.126c-.192-3.588-1.781-6.87-1.3-10.173a27,27,0,0,1,5.538-12.447,74.783,74.783,0,0,0,1.184-11.455,34.621,34.621,0,0,0-1.184-9.046s-2.768-12.838-10.639-20.711-20.843-10.78-20.843-10.78,14.069-30.083-21.015-41.449c-14.04-3.278-20.5,1.147-13.957-29.652,0,0,.995-6.923-1.631-18.485s-5.015-12.609-8.325-16.439c-10.421-10.27-22.077-7.185-22.077-7.185s-8.932-10.842-17.628-11.248a21.689,21.689,0,0,0-14.26,4.389s-4.723-49.022-45.987-51.265c0,0-12.771-.386-19.281-1.025a22.181,22.181,0,0,1-10.229-3.356,136.011,136.011,0,0,0-23.649-2.9,153.016,153.016,0,0,0-24.625,1.8,107.032,107.032,0,0,0-28.233,8.632c-14.376,6.794-29.27,18.542-29.27,18.542s-6.018-3.79-11.52-4.6a21.509,21.509,0,0,0-10.487,1.351s-7.979-9.826-26.063-9.472-35.756,8.12-35.756,8.12a64.781,64.781,0,0,0-21.524,14.044c-9.383,9.626-16.008,24.459-16.008,24.459s-15.564,21.782-26.391,39.566-14.416,37.184-14.416,37.184-1.729,8.566,0,14.447a17.556,17.556,0,0,0,6.915,9.075s-.5,8.746,1.891,15.321a28.809,28.809,0,0,0,7.663,10.978s.039,2.7-5.444,6.162-16.488,7.7-16.488,7.7-9.821,5.155-15.2,12.721-6.327,17.543-6.327,17.543a31.591,31.591,0,0,0,2.24,13.4c2.8,6.507,10.687,10.559,10.545,15.787s-22.54,4.441-24.035,29.674c-2.208,34.842,29.273,43.4,29.273,43.4s-13.657,19.523-5.238,35.668,38.915,28.911,38.915,28.911-14.8,18.245-3.347,40.646,36.172,16.579,36.172,16.579,16.308,24.564,39.907,34.558,54.489,5.416,54.489,5.416a55.238,55.238,0,0,0,17.958,12.434c10.864,4.533,25.5,5.7,25.5,5.7s1.072,7.55-7.607,25.638c-4.869,10.147-15.246,23.081-23.63,36.074S4347.994,3021.854,4347.994,3021.854Z" transform="translate(-3514 -2346)" fill="none" stroke="#fef9ed" stroke-width="15"/>
          <path id="Path_3704" data-name="Path 3704" d="M6004.149,2349.714s16.1,12,23.413,26.628,5.819,31.9,5.819,31.9l12.819-4.2s1.277-.605,5.978,6.823,7.534,19.384,7.534,19.384,8.077-7.184,11.67-6.222,10.263,9.616,14.919,25.457,3.7,37.906,3.7,37.906,8.039,1.333,14.156,12.622,10.313,32.534,10.313,32.534,22.067,3.62,27.444,14.986-5.939,30.479-5.939,30.479,22.64,6.1,23.036,21.926-21.451,41.374-21.451,41.374,15.63,9.448,12.146,30.838-26.082,54.72-26.082,54.72,15.177,6.755,0,24.305c-6.39,7.389-8.769,24.452-16.283,35.458A80.374,80.374,0,0,1,6083,2809.225" transform="translate(-5163 -2239)" fill="none" stroke="#fef9ed" stroke-linecap="round" stroke-width="15"/>
          <path id="Path_3705" data-name="Path 3705" d="M868.2,681.327a232.99,232.99,0,0,0,20.048-29.79A263.124,263.124,0,0,0,903.5,617.549" fill="none" stroke="#fff" stroke-linecap="round" stroke-width="3"/>
        </g>
        <path id="Path_3706" data-name="Path 3706" d="M6138.212,2782.039c-.049-.9-4.478-6.563-10.542-17.052-.249-.431-23.846-4.1-48.083-13.529-26.489-10.3-53.937-28-54.326-28.667,0,0,31.312,14.63,56.26,23.675a306.484,306.484,0,0,0,43.531,12.506c-4.723-8.317-9.1-15.781-14.124-26.582-.239-.513-26.756-10.261-52.083-23.837-24.042-12.887-46.914-29.6-47.4-30.788,0,0,28.234,16.486,52.269,28.148a442.836,442.836,0,0,0,43.869,18.5,192.136,192.136,0,0,1-6.857-24.711c-.069-.311-16.027-10.187-32.2-18.662s-24.519-9.837-32.48-15.239c-31.2-21.17-45.917-41.518-46.119-42.479,0,0,21.383,22.6,48.744,40.095,10.1,6.457,16.687,5.011,32.346,12.976a258.041,258.041,0,0,1,28.354,16.925c-2.461-12.072-4.641-25.492-6.384-37.692-.046-.326-17.019-.014-36.267-14.257-10.926-8.085-20.4-20.333-31.461-30.49-18.873-17.326-36.08-32.555-36.147-33.038,0,0,18.352,13.2,38.217,29.516,11.381,9.346,23.1,21.5,32.64,28.23,25.792,18.178,31.365,11.7,31.365,11.7-2.322-17.012-2.688-27.222-2.629-29.294.031-1.1-.817-5.316-1.322-11.867-.016-.2-6.127-.9-12.56-3.09a53.321,53.321,0,0,1-13-6.762c-5.553-4.141-29.024-43.583-29.017-43.905,0,0,15.8,20.637,29.356,36.561,5.111,6,10.23,7.237,14.569,8.868a35.693,35.693,0,0,0,10.647,2.5c-.519-8.107-.84-18.346-1.718-29.114-.254-3.112-5.793-11.22-6.017-13.6s-6.724-23.25-24.066-40.175-45.607-28.3-45.607-28.3,21.719,4.984,37.6,15.314,17.726,15.327,25.92,26.006,10.594,24.8,10.432,23.45c-.712-13-.148-23.16-.876-28.464-.459-3.345-2.2-15.989-5.048-20.991-.071-.439-6.419-20.707-15.737-33.851s-20.745-18.484-20.838-19.692c-.072-.93,12.913,3.381,22.347,14.11s14.28,28.39,14.229,27.979c-.167-1.335,1.969,1.7,1.761,0-4.813-39.307-12.275-100.425-15.323-104.587-4.2-5.741,5.114,5.62,10.266,23.265s12.1,69.229,15.189,96.65c.024.213,2.523-4.718,6.25-18.177,4.979-17.983,11.646-46.122,11.749-45.318.133,1.041-8.423,46.779-10.174,55.224-2.35,11.325-6.5,19.493-6.359,21.7.977,14.9,2.1,37.063,6.359,38.681.512.194,11.416-16.192,20.119-40.626,7.313-20.529,12.307-49.819,12.871-49.883,0,0-2.461,31.188-7.75,49.07-3.564,13.391-18.66,42.2-19.59,44.752-.987,2.706-3.854,8.849-3.795,9.6.975,12.44-2.253,21.045-1.854,26.986,1.04,15.47,4.128,61.784,11.067,79.4,2.935,7.453,3.616,16.894,5.241,18.513,1.681,1.7,1.917-1.964,2.473-6.483s6.588-65.736,12.645-80.851,21.868-69.87,24.87-82.494,3.9-15.737,3.9-15.737-9.307,54.229-15.166,73.552-12.025,43.722-13.6,56.871-9.592,54.6-10.1,59.952.995,16.844,4.792,22.945,9.979,28.206,10.6,19.08,2.756-38.774,5.444-47.751,17.529-41.507,20.98-46.909,9.894-31.653,10.716-36.65,3.548-14.711,3.548-14.711-1.322,19.573-4.481,32.707-24.014,62.98-26.039,69.316-7.4,41.824-5.751,55.6,5.751,15.61,5.751,15.61,2.819-24.2,8.315-33.844,32.889-59.959,34.762-64.446a77.5,77.5,0,0,1,6.044-10.636s-13.709,30.3-16.322,36.791-21.4,40.263-22.646,47.125-7.855,27.848-3.344,39.843,13.106,26.18,13.106,26.18-14.614-16.615-20.6-21.124-43.024-15.753-50.807-16.875-41.461-8.977-41.461-8.977,29.182,3.5,50.872,7.354c15.7,2.788,28.275,9.637,33.989,11.409C6138.309,2785.616,6138.307,2783.772,6138.212,2782.039Z" transform="translate(-5163 -2239)" fill="#fff"/>
        <g id="Group_234" data-name="Group 234">
          <path id="Path_3707" data-name="Path 3707" d="M941.231,557.822a306.017,306.017,0,0,1,40.49,0,310.5,310.5,0,0,1,40.2,6.154,310.271,310.271,0,0,0-36.148-8.783,354.182,354.182,0,0,0-38.494-4.116Z" transform="translate(103.951 -0.981)" fill="#fff"/>
          <path id="Path_3708" data-name="Path 3708" d="M950.237,544.668l8.488-21.723s5.549,2.9,9.609,3.3c11.823,1.169,36.965,1.157,53.738,0,31.588-2.179,63-12.02,63-12.02a263.856,263.856,0,0,1-49.533,15.19c-19.142,3.806-44.8,4.2-51.42,3.344C968.125,530.688,950.237,544.668,950.237,544.668Z" transform="translate(103.951 -0.981)" fill="#fff"/>
          <path id="Path_3709" data-name="Path 3709" d="M6229.744,2752.716l7.686-13.122s13.294-8.293,37.421-14.9,59.088-11.515,59.088-11.515-39.442,7.712-64.87,17.351-36.84,21.207-36.84,21.207Z" transform="translate(-5163 -2239)" fill="#fff"/>
          <path id="Path_3710" data-name="Path 3710" d="M6237.126,2732.95l-4.452-7.82s5.332-4.278,12.53-10.206c5.57-4.588,12.139-12.087,16.963-15.332s12.3-8.269,24.915-15.622c13.665-7.967,30.464-16.391,38.462-23.759,15.119-13.927,27.543-24.351,27.543-24.351a142.784,142.784,0,0,1-27.543,29.067c-19.526,15.481-47.04,30.057-55.485,36.581C6254.274,2713.7,6237.126,2732.95,6237.126,2732.95Z" transform="translate(-5163 -2239)" fill="#fff"/>
          <path id="Path_3711" data-name="Path 3711" d="M6257.484,2659.724l-2.9-8.925s5.621,2.3,10.469-1.093,33.129-25.676,43.831-36.378c22.909-22.91,37.335-54.169,37.335-54.169a153.662,153.662,0,0,1-15.672,32.709c-8.715,13.651-22.569,27.716-29.4,33.612C6286.238,2638.353,6257.484,2659.724,6257.484,2659.724Z" transform="translate(-5163 -2239)" fill="#fff"/>
          <path id="Path_3712" data-name="Path 3712" d="M6254.445,2627.5l9.215-18.553s26.248-23.729,33.242-33.336,30.167-95.31,30.167-95.31-18.266,85.584-23.23,95.31S6254.445,2627.5,6254.445,2627.5Z" transform="translate(-5163 -2239)" fill="#fff"/>
          <path id="Path_3713" data-name="Path 3713" d="M6264.831,2592.34a504.91,504.91,0,0,0,22.7-58.574c9.424-30.493,3.594-42.883,3.594-42.883s.21,23.935-10.168,52.975c-4.545,12.719-8.016,16.688-11.672,27.005-4.489,12.666-8.269,15.662-8.269,15.662Z" transform="translate(-5163 -2239)" fill="#fff"/>
          <path id="Path_3714" data-name="Path 3714" d="M6268.879,2572.02s-10.968-54.677-9.978-60.539,12.149-11.234,14.634-24.637,1.551-44.226-.365-52.85-4.03-9.861-4.03-9.861,5.849,51.326-2.193,65.484-8.547,15.676-9.927,15.374-6.881-14.953-9.331-25.622-19.339-40.889-19.339-40.889,7.826-18.85,3.375-31.941-7.543-16.314-7.543-16.314,7.564,18.537,4.854,30.15-3.527,13.168-3.527,13.168a219.884,219.884,0,0,0-21.963-29.712c-12.742-14.27-34.816-31.656-34.816-31.656s29.566,29.783,34.816,39.25,36.756,62.811,34.965,65.611-4.711-3.412-13.391-6.138a178.84,178.84,0,0,0-19.969-4.625s27.029,8.056,31.859,15.827c1.937,3.116,5.313,6.91,8.788,16.322s5.114,21.324,5.114,21.324-16.556-14.957-21.355-17.879a23.935,23.935,0,0,0-10.577-3.047s4.548,2.865,9.065,6.172c8.632,6.319,21.157,16.382,23.544,21.577,1.435,3.122,4.7,11.388,7.312,26.415s3.137,33.691,3.137,33.691a21.1,21.1,0,0,0,4.909-6.348A25.694,25.694,0,0,0,6268.879,2572.02Z" transform="translate(-5163 -2239)" fill="#fff"/>
        </g>
      </g>
    </g>
  </g>
</svg>
