<svg xmlns="http://www.w3.org/2000/svg" xmlns:xlink="http://www.w3.org/1999/xlink" width="221.801" height="46.083" viewBox="0 0 221.801 46.083">
  <defs>
    <clipPath id="clip-path">
      <rect id="Rectangle_273" data-name="Rectangle 273" width="170.801" height="44.731" transform="translate(0 0)" fill="none"/>
    </clipPath>
  </defs>
  <g id="Group_272" data-name="Group 272" transform="translate(-406 -4789.917)">
    <g id="Group_270" data-name="Group 270" transform="translate(457 4791.269)">
      <path id="Path_3809" data-name="Path 3809" d="M10.152.864V7.857H4.833V.864H0v18.9H4.833V12.5h5.319v7.263h4.806V.864Z" fill="#fff"/>
      <g id="Group_269" data-name="Group 269">
        <g id="Group_268" data-name="Group 268" clip-path="url(#clip-path)">
          <path id="Path_3810" data-name="Path 3810" d="M27.3,6.263h4.482v13.5H27.3V18.521a4.76,4.76,0,0,1-3.834,1.62A5.821,5.821,0,0,1,18.941,18.1a7.351,7.351,0,0,1-1.823-5.09,7.352,7.352,0,0,1,1.823-5.09,5.824,5.824,0,0,1,4.522-2.038A4.76,4.76,0,0,1,27.3,7.505ZM22.41,15.146a3,3,0,0,0,4.1,0,2.939,2.939,0,0,0,.783-2.133,2.939,2.939,0,0,0-.783-2.133,3,3,0,0,0-4.1,0,2.939,2.939,0,0,0-.783,2.133,2.939,2.939,0,0,0,.783,2.133" fill="#fff"/>
          <path id="Path_3811" data-name="Path 3811" d="M38.612,10.147q0,.344.706.571l1.644.528,1.952.627a3.309,3.309,0,0,1,1.7,1.3,4.1,4.1,0,0,1,.689,2.437,3.778,3.778,0,0,1-1.738,3.43,7.521,7.521,0,0,1-4.125,1.106q-4.536,0-6.048-3.213l3.915-1.97a2.037,2.037,0,0,0,2.106,1.484q1.215,0,1.215-.721c0-.248-.23-.452-.689-.609l-1.622-.556L36.392,13.9a3.45,3.45,0,0,1-1.67-1.246,3.623,3.623,0,0,1-.675-2.228,3.928,3.928,0,0,1,1.6-3.348A6.3,6.3,0,0,1,39.5,5.885q4,0,5.562,3.132l-3.78,1.7a1.835,1.835,0,0,0-1.674-1.161q-1,0-1,.59" fill="#fff"/>
          <path id="Path_3812" data-name="Path 3812" d="M56.512,6.263h4.481v13.5H56.512V18.521a4.763,4.763,0,0,1-3.834,1.62A5.821,5.821,0,0,1,48.155,18.1a7.351,7.351,0,0,1-1.823-5.09,7.352,7.352,0,0,1,1.823-5.09,5.825,5.825,0,0,1,4.523-2.038,4.763,4.763,0,0,1,3.834,1.62Zm-4.888,8.883a3,3,0,0,0,4.1,0,2.94,2.94,0,0,0,.784-2.133,2.94,2.94,0,0,0-.784-2.133,3,3,0,0,0-4.1,0,2.939,2.939,0,0,0-.783,2.133,2.939,2.939,0,0,0,.783,2.133" fill="#fff"/>
          <path id="Path_3813" data-name="Path 3813" d="M78.569,5.939A4.824,4.824,0,0,1,82.228,7.4a5.477,5.477,0,0,1,1.391,3.942v8.424H81.837V11.339a3.8,3.8,0,0,0-.9-2.713,3.132,3.132,0,0,0-2.389-.958,3.529,3.529,0,0,0-2.714,1.12,5.008,5.008,0,0,0-1.039,3.5v7.478H73.007V11.339a3.946,3.946,0,0,0-.85-2.727,2.949,2.949,0,0,0-2.309-.944A3.749,3.749,0,0,0,67.094,8.8a4.748,4.748,0,0,0-1.133,3.484v7.478H64.178V6.263h1.783V8.234a4.625,4.625,0,0,1,4.13-2.3A4.193,4.193,0,0,1,74.2,8.4a4.762,4.762,0,0,1,4.373-2.457" fill="#fff"/>
          <path id="Path_3814" data-name="Path 3814" d="M93.312,5.939A6.129,6.129,0,0,1,98.159,8.06a7.372,7.372,0,0,1,1.848,5.007c0,.2-.017.478-.053.837H88.1a4.846,4.846,0,0,0,1.741,3.254,5.557,5.557,0,0,0,3.632,1.2,5.321,5.321,0,0,0,2.659-.633,4.3,4.3,0,0,0,1.689-1.662l1.564.918a6.409,6.409,0,0,1-2.428,2.269,7.236,7.236,0,0,1-3.51.837,7.017,7.017,0,0,1-5.186-2,6.882,6.882,0,0,1-2-5.076,6.95,6.95,0,0,1,1.971-5.049,6.768,6.768,0,0,1,5.076-2.026m0,1.729A5.053,5.053,0,0,0,88.1,12.177H98.172a5.039,5.039,0,0,0-1.648-3.322,4.768,4.768,0,0,0-3.212-1.187" fill="#fff"/>
          <path id="Path_3815" data-name="Path 3815" d="M114.452.864h1.782v18.9h-1.782V17.118A6.042,6.042,0,0,1,109,20.088a6.685,6.685,0,0,1-4.926-2.051,6.852,6.852,0,0,1-2.039-5.023,6.852,6.852,0,0,1,2.039-5.022A6.686,6.686,0,0,1,109,5.94a6.041,6.041,0,0,1,5.454,2.971Zm-9.1,15.944a5.378,5.378,0,0,0,7.559,0,5.185,5.185,0,0,0,1.539-3.794,5.186,5.186,0,0,0-1.539-3.794,5.378,5.378,0,0,0-7.559,0,5.183,5.183,0,0,0-1.54,3.794,5.182,5.182,0,0,0,1.54,3.794" fill="#fff"/>
          <path id="Path_3816" data-name="Path 3816" d="M121.823,3.023a1.3,1.3,0,0,1-1.836,0,1.25,1.25,0,0,1-.378-.918,1.253,1.253,0,0,1,.378-.918,1.3,1.3,0,0,1,1.836,0,1.253,1.253,0,0,1,.378.918,1.25,1.25,0,0,1-.378.918m-1.808,3.24H121.8v13.5h-1.781Z" fill="#fff"/>
          <path id="Path_3817" data-name="Path 3817" d="M137.187,6.264h1.782v13.5h-1.782V17.118a6.045,6.045,0,0,1-5.454,2.97,6.689,6.689,0,0,1-4.928-2.051,6.851,6.851,0,0,1-2.038-5.023,6.851,6.851,0,0,1,2.038-5.022,6.69,6.69,0,0,1,4.928-2.052,6.044,6.044,0,0,1,5.454,2.971Zm-9.1,10.544a5.38,5.38,0,0,0,7.561,0,5.189,5.189,0,0,0,1.539-3.794,5.19,5.19,0,0,0-1.539-3.794,5.38,5.38,0,0,0-7.561,0,5.19,5.19,0,0,0-1.539,3.794,5.189,5.189,0,0,0,1.539,3.794" fill="#fff"/>
          <path id="Path_3818" data-name="Path 3818" d="M144.773,20.142a2.736,2.736,0,0,1-2.012-.823,2.787,2.787,0,0,1,.014-3.969,2.75,2.75,0,0,1,2-.824,2.806,2.806,0,0,1,1.984,4.793,2.7,2.7,0,0,1-1.984.823" fill="#fff"/>
          <path id="Path_3819" data-name="Path 3819" d="M154.047,4.386a2.542,2.542,0,0,1-3.645,0,2.492,2.492,0,0,1-.769-1.822A2.45,2.45,0,0,1,150.4.755a2.577,2.577,0,0,1,3.645,0,2.443,2.443,0,0,1,.769,1.809,2.484,2.484,0,0,1-.769,1.822m-4.064,1.877h4.482v13.5h-4.482Z" fill="#fff"/>
          <path id="Path_3820" data-name="Path 3820" d="M163.592,20.141a7.023,7.023,0,0,1-5.1-2.065,6.821,6.821,0,0,1-2.105-5.063,6.819,6.819,0,0,1,2.105-5.062,7.352,7.352,0,0,1,10.22,0,6.838,6.838,0,0,1,2.093,5.062,6.84,6.84,0,0,1-2.093,5.063,7,7,0,0,1-5.116,2.065m0-4.32a2.629,2.629,0,0,0,1.957-.782,2.765,2.765,0,0,0,.77-2.026,2.763,2.763,0,0,0-.77-2.025,2.63,2.63,0,0,0-1.957-.782,2.6,2.6,0,0,0-1.931.782,2.77,2.77,0,0,0-.769,2.025,2.772,2.772,0,0,0,.769,2.026,2.6,2.6,0,0,0,1.931.782" fill="#fff"/>
          <path id="Path_3821" data-name="Path 3821" d="M6.236,36.682a2.6,2.6,0,0,1,1.141.93A2.462,2.462,0,0,1,7.8,39.033a2.632,2.632,0,0,1-.8,1.933,2.631,2.631,0,0,1-1.932.8H.8v-9.8H4.752A2.639,2.639,0,0,1,7.384,34.6a2.308,2.308,0,0,1-1.148,2.086M4.752,32.888H1.784V36.3H4.752a1.572,1.572,0,0,0,1.169-.5,1.751,1.751,0,0,0,0-2.415,1.56,1.56,0,0,0-1.169-.5m.322,7.952a1.666,1.666,0,0,0,1.239-.525,1.852,1.852,0,0,0,0-2.555,1.654,1.654,0,0,0-1.239-.532H1.784V40.84Z" fill="#fff"/>
          <path id="Path_3822" data-name="Path 3822" d="M14.412,34.764h.924v7h-.924V40.672a2.589,2.589,0,0,1-2.352,1.26,2.632,2.632,0,0,1-2.009-.777,2.92,2.92,0,0,1-.735-2.093v-4.3h.924v4.3a2.013,2.013,0,0,0,.5,1.456,1.855,1.855,0,0,0,1.407.518,2.2,2.2,0,0,0,1.638-.637,2.7,2.7,0,0,0,.63-1.967Z" fill="#fff"/>
          <path id="Path_3823" data-name="Path 3823" d="M18.234,33.084a.677.677,0,1,1,.2-.477.651.651,0,0,1-.2.477M17.3,34.763h.924v7H17.3Z" fill="#fff"/>
          <rect id="Rectangle_272" data-name="Rectangle 272" width="0.924" height="10.22" transform="translate(20.18 31.543)" fill="#fff"/>
          <path id="Path_3824" data-name="Path 3824" d="M29.084,31.963h.924v9.8h-.924V40.391a3.133,3.133,0,0,1-2.828,1.54A3.467,3.467,0,0,1,23.7,40.867a3.735,3.735,0,0,1,0-5.207A3.468,3.468,0,0,1,26.256,34.6a3.135,3.135,0,0,1,2.828,1.54ZM24.366,40.23a2.786,2.786,0,0,0,3.92,0,2.823,2.823,0,0,0,0-3.934,2.789,2.789,0,0,0-3.92,0,2.823,2.823,0,0,0,0,3.934" fill="#fff"/>
          <path id="Path_3825" data-name="Path 3825" d="M33.508,40.573l-.84,3.15h-.84l.56-3.15Z" fill="#fff"/>
          <path id="Path_3826" data-name="Path 3826" d="M44.847,34.763h.924v6.72a2.94,2.94,0,0,1-1.036,2.38,3.733,3.733,0,0,1-2.478.868,3.349,3.349,0,0,1-3.318-1.708l.812-.462a2.518,2.518,0,0,0,2.506,1.274,2.7,2.7,0,0,0,1.9-.637,2.216,2.216,0,0,0,.693-1.715V40.391a3.133,3.133,0,0,1-2.828,1.54,3.467,3.467,0,0,1-2.555-1.064,3.735,3.735,0,0,1,0-5.207A3.468,3.468,0,0,1,42.019,34.6a3.135,3.135,0,0,1,2.828,1.54ZM40.129,40.23a2.786,2.786,0,0,0,3.92,0,2.823,2.823,0,0,0,0-3.934,2.789,2.789,0,0,0-3.92,0,2.823,2.823,0,0,0,0,3.934" fill="#fff"/>
          <path id="Path_3827" data-name="Path 3827" d="M48.655,35.926a2.274,2.274,0,0,1,2.212-1.274v.9a2.294,2.294,0,0,0-1.582.56,2.247,2.247,0,0,0-.63,1.764v3.892h-.924v-7h.924Z" fill="#fff"/>
          <path id="Path_3828" data-name="Path 3828" d="M57.58,40.875a3.755,3.755,0,0,1-5.221,0,3.717,3.717,0,0,1,0-5.223,3.752,3.752,0,0,1,5.221,0,3.717,3.717,0,0,1,0,5.223m-4.57-.645a2.786,2.786,0,0,0,3.92,0,2.823,2.823,0,0,0,0-3.934,2.789,2.789,0,0,0-3.92,0,2.821,2.821,0,0,0,0,3.934" fill="#fff"/>
          <path id="Path_3829" data-name="Path 3829" d="M68.34,34.764h.894l-2.1,7H66.127l-1.827-5.7-1.828,5.7h-1l-2.117-7h.923l1.751,5.81,1.834-5.81h.954l1.814,5.748Z" fill="#fff"/>
          <path id="Path_3830" data-name="Path 3830" d="M70.972,40.573l-.84,3.15h-.841l.561-3.15Z" fill="#fff"/>
          <path id="Path_3831" data-name="Path 3831" d="M83.753,34.6a2.5,2.5,0,0,1,1.9.756,2.837,2.837,0,0,1,.721,2.044v4.368h-.924V37.4a1.974,1.974,0,0,0-.468-1.407,1.628,1.628,0,0,0-1.24-.5,1.83,1.83,0,0,0-1.407.581,2.6,2.6,0,0,0-.539,1.813v3.878h-.924V37.4a2.046,2.046,0,0,0-.44-1.414,1.533,1.533,0,0,0-1.2-.49,1.941,1.941,0,0,0-1.428.588,2.455,2.455,0,0,0-.589,1.806v3.878h-.924v-7h.924v1.022a2.4,2.4,0,0,1,2.142-1.19,2.174,2.174,0,0,1,2.128,1.274A2.47,2.47,0,0,1,83.753,34.6" fill="#fff"/>
          <path id="Path_3832" data-name="Path 3832" d="M94.183,34.763h.924v7h-.924V40.391a3.133,3.133,0,0,1-2.828,1.54A3.468,3.468,0,0,1,88.8,40.867a3.735,3.735,0,0,1,0-5.207A3.469,3.469,0,0,1,91.355,34.6a3.135,3.135,0,0,1,2.828,1.54ZM89.465,40.23a2.786,2.786,0,0,0,3.92,0,2.823,2.823,0,0,0,0-3.934,2.789,2.789,0,0,0-3.92,0,2.823,2.823,0,0,0,0,3.934" fill="#fff"/>
          <path id="Path_3833" data-name="Path 3833" d="M100.343,34.6a2.633,2.633,0,0,1,2.009.777,2.922,2.922,0,0,1,.735,2.093v4.3h-.924v-4.3a2.021,2.021,0,0,0-.5-1.456,1.858,1.858,0,0,0-1.407-.518,2.2,2.2,0,0,0-1.638.637A2.7,2.7,0,0,0,97.99,38.1v3.668h-.923v-7h.923v1.092a2.591,2.591,0,0,1,2.353-1.26" fill="#fff"/>
          <path id="Path_3834" data-name="Path 3834" d="M110.9,34.763h.924v7H110.9V40.391a3.133,3.133,0,0,1-2.828,1.54,3.468,3.468,0,0,1-2.555-1.064,3.735,3.735,0,0,1,0-5.207,3.469,3.469,0,0,1,2.555-1.065,3.135,3.135,0,0,1,2.828,1.54Zm-4.718,5.467a2.786,2.786,0,0,0,3.92,0,2.823,2.823,0,0,0,0-3.934,2.789,2.789,0,0,0-3.92,0,2.823,2.823,0,0,0,0,3.934" fill="#fff"/>
          <path id="Path_3835" data-name="Path 3835" d="M119.8,34.763h.924v6.72a2.938,2.938,0,0,1-1.037,2.38,3.728,3.728,0,0,1-2.477.868,3.348,3.348,0,0,1-3.318-1.708l.811-.462a2.52,2.52,0,0,0,2.507,1.274,2.691,2.691,0,0,0,1.9-.637,2.216,2.216,0,0,0,.694-1.715V40.391a3.134,3.134,0,0,1-2.828,1.54,3.465,3.465,0,0,1-2.555-1.064,3.732,3.732,0,0,1,0-5.207,3.466,3.466,0,0,1,2.555-1.065,3.136,3.136,0,0,1,2.828,1.54Zm-4.718,5.467a2.786,2.786,0,0,0,3.92,0,2.823,2.823,0,0,0,0-3.934,2.789,2.789,0,0,0-3.92,0,2.821,2.821,0,0,0,0,3.934" fill="#fff"/>
          <path id="Path_3836" data-name="Path 3836" d="M125.92,34.6a3.18,3.18,0,0,1,2.514,1.1,3.833,3.833,0,0,1,.959,2.6c0,.1-.01.247-.029.433h-6.145a2.509,2.509,0,0,0,.9,1.688,2.884,2.884,0,0,0,1.883.623,2.756,2.756,0,0,0,1.379-.329,2.213,2.213,0,0,0,.875-.862l.812.476a3.32,3.32,0,0,1-1.259,1.177,3.756,3.756,0,0,1-1.821.433A3.629,3.629,0,0,1,123.3,40.9a3.558,3.558,0,0,1-1.036-2.632,3.607,3.607,0,0,1,1.021-2.618,3.513,3.513,0,0,1,2.632-1.05m0,.9a2.621,2.621,0,0,0-2.7,2.339h5.222a2.613,2.613,0,0,0-.855-1.723,2.474,2.474,0,0,0-1.666-.616" fill="#fff"/>
          <path id="Path_3837" data-name="Path 3837" d="M131.479,41.68a.78.78,0,1,1,.223-.546.745.745,0,0,1-.223.546" fill="#fff"/>
        </g>
      </g>
    </g>
    <g id="Group_271" data-name="Group 271" transform="translate(134.823 4660.922)">
      <path id="Union_23" data-name="Union 23" d="M14.408,44.608a2.068,2.068,0,0,1-.8-2.669s.108-.205.7-1.124,1.326-1.832,1.67-2.55a3.747,3.747,0,0,0,.538-1.812,6.992,6.992,0,0,1-1.8-.4,3.9,3.9,0,0,1-1.269-.879A8.366,8.366,0,0,1,9.6,34.79a7.451,7.451,0,0,1-2.82-2.443,2.327,2.327,0,0,1-2.557-1.172A2.735,2.735,0,0,1,4.457,28.3s-2.155-.9-2.75-2.043a2.767,2.767,0,0,1,.37-2.521A2.929,2.929,0,0,1,.008,20.671c.106-1.783,1.689-1.728,1.7-2.1s-.547-.656-.746-1.116A2.235,2.235,0,0,1,.8,16.511a2.9,2.9,0,0,1,.447-1.24,3.528,3.528,0,0,1,1.075-.9,8.84,8.84,0,0,0,1.165-.544c.388-.245.385-.435.385-.435a2.037,2.037,0,0,1-.542-.776A3.22,3.22,0,0,1,3.2,11.533a1.24,1.24,0,0,1-.489-.641,2.607,2.607,0,0,1,0-1.021A8.766,8.766,0,0,1,3.73,7.242c.765-1.257,1.865-2.8,1.865-2.8A6.956,6.956,0,0,1,6.726,2.717a4.578,4.578,0,0,1,1.521-.993,7.578,7.578,0,0,1,2.527-.574,2.332,2.332,0,0,1,1.842.669,1.522,1.522,0,0,1,.741-.1,2.424,2.424,0,0,1,.764.3l0-.024.062.048a12.735,12.735,0,0,1,2.061-1.3,7.563,7.563,0,0,1,2-.61A10.816,10.816,0,0,1,19.977,0a9.606,9.606,0,0,1,1.672.2,1.568,1.568,0,0,0,.723.237c.46.045,1.363.072,1.363.072,2.917.158,3.25,3.623,3.25,3.623a1.533,1.533,0,0,1,1.008-.31c.615.029,1.246.795,1.246.795a1.717,1.717,0,0,1,1.56.508,1.872,1.872,0,0,1,.588,1.162A3.961,3.961,0,0,1,31.5,7.6c-.462,2.177-.006,1.864.986,2.1a2.068,2.068,0,0,1,1.485,2.929,3.457,3.457,0,0,1,1.473.762,3.372,3.372,0,0,1,.752,1.464,2.448,2.448,0,0,1,.084.639,5.283,5.283,0,0,1-.084.81,1.908,1.908,0,0,0-.391.88,3.958,3.958,0,0,0,.092.719,3.9,3.9,0,0,1-.519,1.847,1.7,1.7,0,0,1,.749.553,3.1,3.1,0,0,1,.81,2.219,3.665,3.665,0,0,1-2.5,3.469,3.1,3.1,0,0,1,.814.822,1.923,1.923,0,0,1,.229.969A2.241,2.241,0,0,1,35.224,29a2.66,2.66,0,0,1-.938.885c-.037.063.028.257.058.507a6.941,6.941,0,0,1,.036.949,4.345,4.345,0,0,1-1.489,2.639,8.026,8.026,0,0,1-3.537,1.067,3.142,3.142,0,0,1-1.073,1.286,4.452,4.452,0,0,1-1.8.505H22.216l-.783.533c-.45.75-.647,1.515-1.488,3.1s-1.9,3.213-1.9,3.213l-.275.751a3.809,3.809,0,0,1-1.935.592A2.611,2.611,0,0,1,14.408,44.608Z" transform="translate(271.742 129.525)" fill="#0e1212"/>
      <g id="Group_236" data-name="Group 236" transform="translate(271.177 128.995)">
        <g id="Group_233" data-name="Group 233" transform="translate(0 0)">
          <path id="Path_78" data-name="Path 78" d="M4164.269,2467.059h0a3.132,3.132,0,0,1-1.715-.5,2.568,2.568,0,0,1-.985-3.351c.018-.035.142-.265.73-1.177.22-.34.458-.68.689-1.01a12.027,12.027,0,0,0,.948-1.482,5.972,5.972,0,0,0,.426-1.123,6.459,6.459,0,0,1-1.417-.373,4.476,4.476,0,0,1-1.255-.812c-.228.022-.584.049-1.012.049a7.6,7.6,0,0,1-2.855-.5,7.673,7.673,0,0,1-2.857-2.363c-.078.006-.167.01-.263.01a2.719,2.719,0,0,1-2.522-1.509,3.18,3.18,0,0,1-.045-2.88,5.875,5.875,0,0,1-2.467-2.032,2.865,2.865,0,0,1,.09-2.5,3.418,3.418,0,0,1-1.848-3.366,2.432,2.432,0,0,1,1.553-2.219l-.058-.062a2.409,2.409,0,0,1-.5-.689,2.741,2.741,0,0,1-.2-1.2,3.385,3.385,0,0,1,.543-1.5,3.979,3.979,0,0,1,1.26-1.061,9.561,9.561,0,0,0,1.09-.5,2.35,2.35,0,0,1-.333-.606,3.326,3.326,0,0,1-.168-1.014,1.7,1.7,0,0,1-.465-.742,3.081,3.081,0,0,1-.011-1.275,9.269,9.269,0,0,1,1.086-2.8c.706-1.16,1.674-2.529,1.858-2.788a7.34,7.34,0,0,1,1.212-1.832,5.117,5.117,0,0,1,1.72-1.121,8.021,8.021,0,0,1,2.7-.605h.078a3.032,3.032,0,0,1,1.915.607,1.965,1.965,0,0,1,.679-.027,2.56,2.56,0,0,1,.688.223,12.515,12.515,0,0,1,1.892-1.163,8.074,8.074,0,0,1,2.152-.656,11.458,11.458,0,0,1,1.651-.134l.171,0a10.117,10.117,0,0,1,1.776.218l.107.024.088.065h0a1.115,1.115,0,0,0,.462.138c.449.044,1.327.07,1.327.07a4.08,4.08,0,0,1,3.635,3.38,2.1,2.1,0,0,1,.534-.069l.1,0a2.364,2.364,0,0,1,1.428.766l.093,0a2.323,2.323,0,0,1,1.632.691l.117.127a2.33,2.33,0,0,1,.617,1.294,4.442,4.442,0,0,1,.123,1.5c-.232,1.094-.177,1.335-.156,1.384a1.667,1.667,0,0,1,.3.037c.131.022.277.046.435.083a2.853,2.853,0,0,1,1.9,1.514,2.628,2.628,0,0,1,.129,1.585,3.466,3.466,0,0,1,1.188.734,3.823,3.823,0,0,1,.9,1.727h0a2.841,2.841,0,0,1,.1.751,5.692,5.692,0,0,1-.093.907l-.026.14-.093.108h0a1.391,1.391,0,0,0-.268.61.906.906,0,0,0,.035.222,2.461,2.461,0,0,1,.062.392,3.891,3.891,0,0,1-.352,1.657,3.015,3.015,0,0,1,.45.419,3.622,3.622,0,0,1,.942,2.567,4.1,4.1,0,0,1-2.064,3.612,2.508,2.508,0,0,1,.311.416,2.434,2.434,0,0,1,.3,1.225,2.724,2.724,0,0,1-.339,1.5,2.828,2.828,0,0,1-.834.879c.009.055.018.114.026.176a7.469,7.469,0,0,1,.04,1.033,4.856,4.856,0,0,1-1.7,3.045,7.936,7.936,0,0,1-3.513,1.142,3.514,3.514,0,0,1-1.131,1.234,4.967,4.967,0,0,1-2.052.584h-4.13l-.549.374a10.546,10.546,0,0,0-.477,1c-.217.5-.488,1.121-.94,1.972-.77,1.449-1.7,2.91-1.888,3.2l-.313.855-.14.1A4.345,4.345,0,0,1,4164.269,2467.059Zm-2.185-10.946.191.211a3.4,3.4,0,0,0,1.079.744,6.394,6.394,0,0,0,1.64.364l.423.033.06.42a4.107,4.107,0,0,1-.584,2.116,12.711,12.711,0,0,1-1.036,1.633c-.224.319-.455.647-.667.975-.555.861-.673,1.077-.678,1.086a1.52,1.52,0,0,0,.613,1.973,2.087,2.087,0,0,0,1.145.331,3.245,3.245,0,0,0,1.5-.419l.231-.632.032-.05c.011-.016,1.054-1.629,1.875-3.173.432-.814.694-1.415.9-1.9a10.181,10.181,0,0,1,.6-1.225l.06-.1,1.015-.69h4.428a3.864,3.864,0,0,0,1.52-.425,2.625,2.625,0,0,0,.867-1.044l.129-.3.325-.022a7.54,7.54,0,0,0,3.255-.965,3.827,3.827,0,0,0,1.278-2.281,7.383,7.383,0,0,0-.037-.815c-.009-.079-.023-.152-.036-.215a.846.846,0,0,1,.045-.622l.057-.1.092-.066c.033-.023.074-.051.123-.082a1.928,1.928,0,0,0,.669-.646,1.74,1.74,0,0,0,.189-.9l0-.042,0-.042a1.4,1.4,0,0,0-.158-.67,2.533,2.533,0,0,0-.654-.65l-.911-.621,1.053-.324a3.117,3.117,0,0,0,2.121-2.96,2.57,2.57,0,0,0-.677-1.871,1.358,1.358,0,0,0-.5-.394l-.621-.206.31-.572a3.321,3.321,0,0,0,.447-1.55,1.338,1.338,0,0,0-.038-.219,1.618,1.618,0,0,1-.049-.6,2.421,2.421,0,0,1,.415-1.02,4.206,4.206,0,0,0,.055-.594,1.97,1.97,0,0,0-.062-.489,2.2,2.2,0,0,0-1.834-1.859l-.64-.147.276-.595a1.777,1.777,0,0,0,.036-1.291,1.833,1.833,0,0,0-1.2-.909c-.091-.019-.214-.039-.325-.058a1.358,1.358,0,0,1-1.009-.494c-.265-.389-.268-.933-.008-2.156h0a3.932,3.932,0,0,0-.113-1.081,1.355,1.355,0,0,0-.36-.808l-.113-.125a1.224,1.224,0,0,0-.859-.355.831.831,0,0,0-.172.015l-.317.073-.219-.249a1.731,1.731,0,0,0-.862-.6h0a1.08,1.08,0,0,0-.633.182l-.771.665-.1-1.014c-.013-.123-.333-3.015-2.751-3.146-.025,0-.914-.028-1.386-.074a2.207,2.207,0,0,1-.872-.265,9.1,9.1,0,0,0-1.483-.175h-.147a10.689,10.689,0,0,0-1.5.122,7.129,7.129,0,0,0-1.855.566,12.39,12.39,0,0,0-1.967,1.248l-.292.23-.317-.2a2,2,0,0,0-.61-.25.961.961,0,0,0-.458.059l-.365.15-.253-.3a1.833,1.833,0,0,0-1.363-.474,7.193,7.193,0,0,0-2.382.53,4.12,4.12,0,0,0-1.354.877,6.445,6.445,0,0,0-1.027,1.575l-.022.048-.031.043c-.011.015-1.1,1.539-1.844,2.764a8.324,8.324,0,0,0-.951,2.449,2.042,2.042,0,0,0-.013.775.715.715,0,0,0,.264.343l.255.167-.009.309a2.652,2.652,0,0,0,.1.873,1.525,1.525,0,0,0,.385.552l.182.156.006.242c0,.146-.056.527-.632.891a9,9,0,0,1-1.258.591,3.04,3.04,0,0,0-.833.712,2.367,2.367,0,0,0-.352.984h0a1.7,1.7,0,0,0,.118.686,1.565,1.565,0,0,0,.3.383,1.369,1.369,0,0,1,.49.957c-.012.444-.4.626-.687.759a1.416,1.416,0,0,0-1.013,1.355,2.4,2.4,0,0,0,1.682,2.525l.717.2-.424.611c-.007.01-.771,1.135-.335,1.972a5.94,5.94,0,0,0,2.486,1.8l.651.274-.445.549a2.2,2.2,0,0,0-.177,2.3,1.646,1.646,0,0,0,1.579.931,1.988,1.988,0,0,0,.388-.035l.354-.079.2.3a6.966,6.966,0,0,0,2.586,2.248,6.548,6.548,0,0,0,2.442.415,8.628,8.628,0,0,0,1.125-.069Z" transform="translate(-4147.901 -2420.975)" fill="#fef9ed"/>
          <path id="Path_3704" data-name="Path 3704" d="M6002.752,2375.752a.53.53,0,0,1-.259-.993,5.187,5.187,0,0,0,1.541-1.433,5.5,5.5,0,0,0,.538-1.212,4.225,4.225,0,0,1,.65-1.342,1.048,1.048,0,0,0,.343-.7.344.344,0,0,0-.168-.2l-.54-.271.326-.506a13,13,0,0,0,1.759-3.656,1.591,1.591,0,0,0-.609-1.641l-.534-.323.406-.475a5.678,5.678,0,0,0,1.389-2.567c-.018-.7-1.226-1.048-1.238-1.052l-.667-.184.349-.6a2.387,2.387,0,0,0,.4-1.658c-.178-.378-1.012-.673-1.547-.763l-.361-.061-.072-.36a10.027,10.027,0,0,0-.675-2.149,1.157,1.157,0,0,0-.639-.625l-.422-.1,0-.439a9.49,9.49,0,0,0-.241-2.507,3.912,3.912,0,0,0-.654-1.381,2.658,2.658,0,0,0-.365.268l-.662.586-.206-.86a4.841,4.841,0,0,0-.465-1.209c-.042-.068-.079-.123-.11-.166l-1.363.449.064-.8a4.271,4.271,0,0,0-.357-1.973,5.759,5.759,0,0,0-1.5-1.694.53.53,0,0,1,.633-.85,6.865,6.865,0,0,1,1.813,2.07,4.859,4.859,0,0,1,.458,1.764l.221-.072c.452-.219.831.381,1.035.7a4.373,4.373,0,0,1,.378.8.96.96,0,0,1,.668-.1c.632.169,1.151,1.228,1.426,2.162a9.577,9.577,0,0,1,.289,2.478,2.411,2.411,0,0,1,.931.991,9.557,9.557,0,0,1,.708,2.105,3,3,0,0,1,1.973,1.279,2.717,2.717,0,0,1-.167,2.1,2.2,2.2,0,0,1,1.426,1.82,5.629,5.629,0,0,1-1.316,2.874,2.679,2.679,0,0,1,.651,2.329,12.145,12.145,0,0,1-1.664,3.673,1.271,1.271,0,0,1,.273.549,1.877,1.877,0,0,1-.575,1.625,3.771,3.771,0,0,0-.453,1,6.315,6.315,0,0,1-.662,1.455,6.222,6.222,0,0,1-1.9,1.761A.531.531,0,0,1,6002.752,2375.752Z" transform="translate(-5982.53 -2340.218)" fill="#fef9ed"/>
          <path id="Path_3705" data-name="Path 3705" d="M866.81,620.768a.106.106,0,0,1-.082-.173,16.5,16.5,0,0,0,1.407-2.09,18.651,18.651,0,0,0,1.07-2.386.106.106,0,1,1,.2.071s-.117.327-.307.784a17,17,0,0,1-.778,1.634,15.312,15.312,0,0,1-.949,1.486c-.275.384-.476.633-.479.635A.105.105,0,0,1,866.81,620.768Z" transform="translate(-850.25 -577.806)" fill="#fff"/>
        </g>
        <path id="Path_3706" data-name="Path 3706" d="M5999.652,2414.8c0-.063-.316-.464-.745-1.205a23.313,23.313,0,0,1-3.4-.956,21.6,21.6,0,0,1-3.839-2.026s2.213,1.034,3.976,1.673a21.677,21.677,0,0,0,3.077.884c-.333-.588-.643-1.115-1-1.879-.017-.037-1.891-.725-3.681-1.685a22.007,22.007,0,0,1-3.351-2.176s2,1.165,3.694,1.989a31.242,31.242,0,0,0,3.1,1.308,13.637,13.637,0,0,1-.485-1.746c0-.022-1.133-.72-2.275-1.319s-1.733-.7-2.3-1.077a12.361,12.361,0,0,1-3.26-3,20.8,20.8,0,0,0,3.445,2.834c.714.456,1.18.354,2.287.917a18.221,18.221,0,0,1,2,1.2c-.174-.853-.329-1.8-.452-2.664a4.975,4.975,0,0,1-2.563-1.008c-.772-.572-1.442-1.437-2.224-2.155-1.333-1.224-2.55-2.3-2.555-2.335,0,0,1.3.933,2.7,2.086.8.66,1.633,1.52,2.307,2,1.823,1.285,2.217.827,2.217.827a16.875,16.875,0,0,1-.186-2.071c0-.077-.058-.376-.093-.839a8.46,8.46,0,0,1-.887-.219,3.752,3.752,0,0,1-.919-.478,25.714,25.714,0,0,1-2.051-3.1s1.118,1.459,2.075,2.584a2.069,2.069,0,0,0,1.03.627,2.525,2.525,0,0,0,.752.177c-.036-.573-.059-1.3-.121-2.058-.018-.22-.41-.793-.425-.962a6.455,6.455,0,0,0-1.7-2.839,11.636,11.636,0,0,0-3.224-2,9.633,9.633,0,0,1,2.658,1.082,5.6,5.6,0,0,1,1.832,1.838,4.7,4.7,0,0,1,.737,1.657c-.05-.919-.011-1.637-.062-2.012a5.671,5.671,0,0,0-.357-1.484,9.825,9.825,0,0,0-1.112-2.393,7.075,7.075,0,0,0-1.473-1.392,2.963,2.963,0,0,1,1.58,1,6.082,6.082,0,0,1,1.005,1.978c-.012-.094.139.12.125,0a73.935,73.935,0,0,0-1.083-7.392,7.858,7.858,0,0,1,.725,1.644,63.2,63.2,0,0,1,1.074,6.831,6.417,6.417,0,0,0,.441-1.285c.352-1.271.824-3.26.831-3.2.009.073-.6,3.306-.719,3.9-.167.8-.46,1.378-.45,1.534.069,1.053.148,2.619.45,2.734a11.148,11.148,0,0,0,1.422-2.872c.517-1.451.87-3.521.909-3.526a21.979,21.979,0,0,1-.548,3.469,28.206,28.206,0,0,1-1.384,3.163c-.07.191-.272.625-.268.678a16.429,16.429,0,0,1-.131,1.907,27.357,27.357,0,0,0,.782,5.612c.208.527.256,1.194.371,1.308s.135-.139.175-.458a41.17,41.17,0,0,1,.894-5.715c.428-1.068,1.546-4.938,1.758-5.831s.276-1.112.276-1.112-.658,3.833-1.072,5.2a29.39,29.39,0,0,0-.961,4.02c-.111.929-.678,3.859-.714,4.237a3.229,3.229,0,0,0,.339,1.622c.268.431.7,1.994.749,1.348a26.406,26.406,0,0,1,.385-3.375,28.7,28.7,0,0,1,1.483-3.315,14.263,14.263,0,0,0,.757-2.591c.058-.353.25-1.04.25-1.04a17.31,17.31,0,0,1-.316,2.312c-.224.928-1.7,4.451-1.84,4.9a16.587,16.587,0,0,0-.407,3.93c.117.973.407,1.1.407,1.1a8.978,8.978,0,0,1,.587-2.392c.389-.681,2.325-4.238,2.458-4.555a5.43,5.43,0,0,1,.427-.752s-.969,2.141-1.154,2.6-1.512,2.846-1.6,3.331a6.147,6.147,0,0,0-.236,2.816,13.547,13.547,0,0,0,.926,1.85,17.413,17.413,0,0,0-1.456-1.493,17.9,17.9,0,0,0-3.591-1.193c-.55-.079-2.93-.635-2.93-.635s2.063.248,3.6.52a13.135,13.135,0,0,1,2.4.806C5999.66,2415.056,5999.659,2414.926,5999.652,2414.8Z" transform="translate(-5982.876 -2381.652)" fill="#fff"/>
        <g id="Group_234" data-name="Group 234" transform="translate(18.933 4.183)">
          <path id="Path_3707" data-name="Path 3707" d="M941.231,551.553a21.623,21.623,0,0,1,2.862,0,21.94,21.94,0,0,1,2.841.435,21.941,21.941,0,0,0-2.555-.621,25.043,25.043,0,0,0-2.721-.291Z" transform="translate(-938.443 -521.609)" fill="#fff"/>
          <path id="Path_3708" data-name="Path 3708" d="M950.237,516.38l.6-1.535a2.378,2.378,0,0,0,.679.234,29.136,29.136,0,0,0,3.8,0,22.248,22.248,0,0,0,4.453-.85,18.646,18.646,0,0,1-3.5,1.074,15.773,15.773,0,0,1-3.634.236A3.922,3.922,0,0,0,950.237,516.38Z" transform="translate(-946.812 -487.366)" fill="#fff"/>
          <path id="Path_3709" data-name="Path 3709" d="M6229.743,2715.978l.543-.927a10.819,10.819,0,0,1,2.645-1.053,41.362,41.362,0,0,1,4.176-.814,35.219,35.219,0,0,0-4.585,1.226,7.707,7.707,0,0,0-2.6,1.5Z" transform="translate(-6225.43 -2689.082)" fill="#fff"/>
          <path id="Path_3710" data-name="Path 3710" d="M6232.989,2642.723l-.314-.553s.376-.3.885-.721c.394-.324.858-.854,1.2-1.084s.869-.584,1.761-1.1a19.35,19.35,0,0,0,2.718-1.679c1.069-.984,1.948-1.721,1.948-1.721a10.1,10.1,0,0,1-1.948,2.054c-1.379,1.094-3.324,2.125-3.921,2.586A20.922,20.922,0,0,0,6232.989,2642.723Z" transform="translate(-6228.155 -2617.224)" fill="#fff"/>
          <path id="Path_3711" data-name="Path 3711" d="M6254.791,2566.266l-.205-.631a.836.836,0,0,0,.74-.077,39.968,39.968,0,0,0,3.1-2.571,15.2,15.2,0,0,0,2.639-3.829,10.854,10.854,0,0,1-1.107,2.312,12.634,12.634,0,0,1-2.078,2.376C6256.823,2564.756,6254.791,2566.266,6254.791,2566.266Z" transform="translate(-6248.518 -2545.943)" fill="#fff"/>
          <path id="Path_3712" data-name="Path 3712" d="M6254.446,2490.7l.65-1.311a27.441,27.441,0,0,0,2.35-2.356c.495-.679,2.133-6.736,2.133-6.736s-1.292,6.049-1.642,6.736A38.4,38.4,0,0,1,6254.446,2490.7Z" transform="translate(-6248.388 -2472.655)" fill="#fff"/>
          <path id="Path_3713" data-name="Path 3713" d="M6261.286,2498.053a35.8,35.8,0,0,0,1.6-4.14c.666-2.155.254-3.031.254-3.031a12.021,12.021,0,0,1-.718,3.744c-.322.9-.567,1.18-.826,1.909a2.628,2.628,0,0,1-.584,1.107Z" transform="translate(-6254.493 -2482.492)" fill="#fff"/>
          <path id="Path_3714" data-name="Path 3714" d="M6175.809,2386.3s-.776-3.865-.706-4.279.859-.794,1.035-1.741a14.835,14.835,0,0,0-.026-3.735c-.135-.609-.285-.7-.285-.7s.414,3.628-.155,4.628-.6,1.108-.7,1.087a6.4,6.4,0,0,1-.66-1.811,19.9,19.9,0,0,0-1.367-2.89,3.925,3.925,0,0,0,.239-2.258,3.562,3.562,0,0,0-.533-1.153,4.568,4.568,0,0,1,.343,2.131,6.5,6.5,0,0,1-.249.931,15.584,15.584,0,0,0-1.553-2.1,23.866,23.866,0,0,0-2.461-2.238,26.909,26.909,0,0,1,2.461,2.774c.371.669,2.6,4.439,2.472,4.637s-.333-.241-.947-.434a12.612,12.612,0,0,0-1.412-.327s1.91.57,2.252,1.119a4.674,4.674,0,0,1,.621,1.154,8.494,8.494,0,0,1,.362,1.507s-1.17-1.057-1.51-1.264a1.694,1.694,0,0,0-.748-.215s.322.2.641.437a7.043,7.043,0,0,1,1.664,1.525,7.809,7.809,0,0,1,.516,1.867,19.709,19.709,0,0,1,.222,2.381,1.485,1.485,0,0,0,.347-.449A1.8,1.8,0,0,0,6175.809,2386.3Z" transform="translate(-6168.729 -2372.174)" fill="#fff"/>
        </g>
      </g>
    </g>
  </g>
</svg>
