<svg xmlns="http://www.w3.org/2000/svg" width="12.85" height="12.85" viewBox="0 0 12.85 12.85">
  <path id="pattern" d="M3.8,0H5.862l7,7V9.06Zm5.27,0,3.79,3.79V5.848L7.016,0Zm2.183,0a1.548,1.548,0,0,1,1.136.471,1.546,1.546,0,0,1,.471,1.136V2.635L10.228,0h1.029Zm0,12.85H10.228L.014,2.635V1.606A1.536,1.536,0,0,1,.24.8L12.06,12.624a1.536,1.536,0,0,1-.8.226Zm-4.241,0-7-7V3.79l9.06,9.06H7.016Zm-3.212,0L.014,9.06V7L5.862,12.85H3.8Zm-2.183,0a1.548,1.548,0,0,1-1.136-.471,1.546,1.546,0,0,1-.471-1.136V10.214L2.649,12.85H1.62ZM1.62,0H2.649L12.864,10.214v1.029a1.536,1.536,0,0,1-.226.8L.817.226A1.536,1.536,0,0,1,1.62,0Z" transform="translate(-0.014)" fill="#fff"/>
</svg>
