<?xml version="1.0" standalone="no"?>
<!DOCTYPE svg PUBLIC "-//W3C//DTD SVG 20010904//EN"
 "http://www.w3.org/TR/2001/REC-SVG-20010904/DTD/svg10.dtd">
<svg version="1.0" xmlns="http://www.w3.org/2000/svg"
 width="700.000000pt" height="700.000000pt" viewBox="0 0 700.000000 700.000000"
 preserveAspectRatio="xMidYMid meet">
<metadata>
Created by potrace 1.14, written by Peter Selinger 2001-2017
</metadata>
<g transform="translate(0.000000,700.000000) scale(0.100000,-0.100000)"
fill="#000000" stroke="none">
<path d="M0 3500 l0 -3500 3500 0 3500 0 0 3500 0 3500 -3500 0 -3500 0 0
-3500z m3815 2087 c22 -8 81 -18 130 -21 50 -3 107 -10 127 -16 92 -27 198
-139 229 -243 13 -47 14 -47 57 -47 44 0 108 -26 131 -54 8 -9 28 -16 45 -16
42 0 104 -33 142 -76 50 -55 68 -136 60 -270 l-7 -111 42 -7 c125 -20 211
-112 214 -229 l2 -59 52 -29 c115 -66 179 -264 120 -373 -17 -32 -20 -50 -15
-90 4 -33 1 -72 -9 -109 l-15 -58 34 -42 c69 -85 81 -121 81 -237 0 -95 -3
-110 -29 -163 -28 -58 -79 -118 -125 -150 l-25 -17 22 -39 c51 -91 38 -210
-33 -289 -41 -45 -42 -49 -38 -98 14 -139 -81 -300 -217 -369 -55 -28 -186
-65 -229 -65 -19 0 -35 -12 -61 -47 -26 -35 -54 -58 -104 -83 l-69 -35 -236
-3 c-284 -4 -269 2 -330 -139 -50 -114 -86 -182 -185 -348 -39 -66 -78 -137
-86 -160 -21 -54 -102 -96 -201 -103 -87 -6 -142 9 -204 56 -62 47 -95 108
-95 176 0 80 13 109 123 275 114 171 122 184 142 241 l14 39 -54 11 c-55 11
-135 49 -168 78 -14 12 -43 16 -125 18 -197 3 -300 45 -438 177 -83 79 -95 87
-130 87 -46 0 -130 37 -161 71 -12 13 -34 50 -48 82 -24 51 -26 67 -22 130 3
40 8 82 12 93 6 18 -2 27 -54 58 -74 46 -141 109 -164 158 -21 44 -22 131 -3
186 14 38 14 41 -4 47 -37 12 -119 114 -135 167 -37 127 -6 249 79 305 l43 29
-23 29 c-23 29 -44 95 -44 138 0 48 34 129 73 173 25 29 64 56 114 80 59 29
73 39 67 53 -4 9 -15 43 -24 76 -9 33 -26 80 -38 105 -27 56 -27 87 -2 184 26
104 65 181 163 328 45 68 101 155 124 194 78 131 172 201 328 245 50 14 110
23 160 23 69 1 88 -3 137 -27 32 -16 62 -26 67 -23 5 3 31 1 58 -5 48 -11 49
-11 118 34 86 55 169 91 261 111 90 20 320 16 379 -7z"/>
<path d="M3530 5510 c-36 -4 -85 -13 -110 -20 -53 -14 -174 -71 -209 -99 l-25
-19 44 -48 c50 -57 85 -127 101 -202 10 -48 12 -52 35 -46 19 5 31 -1 59 -30
18 -20 40 -52 47 -72 11 -30 16 -34 37 -29 86 22 169 -119 192 -323 10 -90 13
-100 44 -132 40 -41 80 -123 97 -199 7 -32 18 -55 27 -58 81 -25 142 -67 166
-114 18 -34 19 -102 1 -151 l-13 -37 38 -26 39 -25 -6 47 c-12 106 -27 191
-45 249 -20 66 -62 113 -167 189 -29 20 -52 38 -52 40 0 1 11 0 25 -3 13 -2
56 -31 95 -63 76 -65 80 -63 56 27 -19 71 -64 151 -99 176 -17 12 -55 32 -86
45 -45 19 -49 23 -21 18 19 -4 59 -18 88 -32 29 -14 55 -23 57 -21 6 5 -49
111 -147 286 -78 139 -99 169 -218 304 l-55 63 69 -60 c87 -76 165 -162 219
-242 23 -34 45 -63 48 -63 4 0 12 26 19 59 9 45 10 71 1 111 -14 65 -9 74 13
20 20 -50 20 -109 2 -179 l-14 -53 54 -107 c30 -58 64 -137 75 -176 28 -91 49
-145 59 -145 4 0 25 34 46 77 l39 76 -1 181 c-1 138 1 175 10 156 6 -15 11
-98 11 -205 0 -197 -3 -210 -68 -284 -28 -33 -29 -38 -24 -95 3 -34 18 -123
33 -199 l26 -138 25 53 c62 132 112 305 113 390 0 20 5 40 12 44 8 5 9 -14 4
-76 -7 -90 -58 -261 -126 -423 -29 -70 -36 -97 -29 -115 5 -13 9 -35 9 -48 l0
-26 40 32 c22 18 65 61 95 96 50 59 58 77 104 217 27 83 59 189 72 235 41 149
31 78 -16 -124 -73 -306 -59 -277 -194 -417 -66 -67 -135 -149 -154 -182 -20
-33 -42 -69 -50 -79 -12 -17 -11 -23 11 -57 14 -22 31 -39 37 -39 14 0 200
147 282 224 67 62 149 166 203 258 49 83 50 62 1 -28 -77 -143 -172 -245 -366
-396 l-119 -94 -2 -59 c-3 -71 -28 -148 -82 -250 -22 -41 -37 -75 -34 -75 2 0
32 26 66 58 35 31 122 92 197 136 214 126 231 137 297 195 35 31 83 72 105 91
l42 35 -33 -42 c-64 -81 -172 -169 -344 -278 -125 -79 -197 -133 -260 -194
-49 -46 -88 -89 -88 -95 1 -34 17 -34 108 0 89 33 291 85 329 84 10 -1 -34
-16 -97 -35 -231 -67 -322 -114 -375 -191 -25 -35 -35 -58 -28 -65 31 -31 419
-17 601 22 52 11 96 19 98 16 7 -7 -205 -66 -281 -77 -38 -6 -135 -13 -215
-14 -174 -4 -237 -23 -266 -78 -21 -41 -18 -48 29 -48 53 0 214 -25 287 -45
31 -8 40 -12 20 -10 -109 14 -235 25 -303 25 l-77 0 -59 -54 c-72 -66 -108
-86 -137 -76 -51 20 -38 61 35 115 67 48 112 112 151 215 17 47 45 103 61 124
36 49 36 61 2 83 -16 9 -30 18 -32 19 -2 2 17 36 42 76 68 109 137 261 144
316 7 62 -17 117 -64 144 -18 11 -33 24 -33 29 0 5 22 36 48 69 50 62 96 144
108 192 9 40 -45 91 -118 113 l-56 16 34 65 c44 86 47 143 7 170 -16 10 -55
25 -88 34 -54 15 -60 20 -67 51 -41 168 -77 236 -135 254 -21 6 -23 12 -23 78
0 105 -17 194 -51 266 l-29 64 -23 -19 c-12 -10 -34 -29 -48 -42 l-27 -23 -12
53 c-17 73 -50 148 -65 148 -7 0 -32 -7 -55 -15 -23 -8 -46 -15 -50 -15 -4 0
-10 44 -12 98 -5 116 -29 172 -107 250 -63 63 -100 79 -148 64 -33 -10 -39 -9
-58 12 -64 69 -238 55 -396 -31 -57 -31 -95 -70 -135 -140 -15 -26 -69 -111
-120 -188 -107 -163 -124 -196 -153 -289 -29 -94 -28 -139 4 -164 20 -16 25
-29 25 -66 0 -49 17 -93 44 -115 44 -37 4 -92 -110 -149 -115 -58 -154 -107
-154 -192 0 -29 8 -48 35 -80 64 -77 59 -116 -21 -162 -66 -36 -84 -68 -84
-144 0 -106 60 -185 165 -214 25 -7 45 -14 45 -16 0 -2 -13 -24 -29 -49 -42
-67 -56 -133 -38 -178 20 -47 102 -111 205 -159 l83 -40 -27 -35 c-74 -98 -62
-219 29 -287 23 -17 42 -21 95 -20 l67 1 35 -49 c46 -65 142 -145 208 -174 70
-32 179 -48 276 -41 79 5 80 5 121 -29 54 -44 103 -64 195 -78 l75 -12 -1 -60
c-2 -84 -37 -160 -160 -345 -58 -86 -109 -171 -114 -190 -18 -63 18 -132 90
-169 52 -27 220 -1 220 34 0 7 41 82 92 166 79 134 116 205 219 427 13 27 38
54 72 77 l52 36 226 0 c289 0 323 10 385 116 24 40 26 41 90 48 36 4 101 18
146 32 67 21 89 34 133 77 73 73 99 143 91 250 -5 75 -4 79 21 103 14 13 29
24 34 24 4 0 17 16 29 36 18 29 22 46 18 94 -5 68 -21 91 -101 142 -56 36 -59
31 44 68 120 44 191 143 190 268 0 110 -46 191 -122 213 -22 7 -38 15 -37 18
2 4 17 33 33 66 26 52 30 71 30 145 1 60 6 94 18 117 20 37 22 114 6 164 -26
76 -89 126 -181 143 l-37 7 21 46 c48 108 0 186 -134 218 -59 15 -73 23 -89
49 -22 35 -24 82 -8 156 17 78 -4 175 -47 218 -27 27 -39 32 -81 32 -43 0 -53
4 -83 35 -45 46 -87 47 -142 4 -21 -17 -40 -30 -42 -28 -2 2 -9 38 -15 79 -13
84 -44 159 -86 208 -45 54 -97 74 -210 82 -55 4 -125 15 -155 23 -72 20 -169
27 -250 17z m-630 -607 c16 -76 52 -310 76 -492 6 -52 7 -54 19 -30 7 13 27
81 46 151 18 70 35 126 37 124 6 -6 -47 -272 -68 -338 -17 -54 -18 -75 -10
-158 5 -53 14 -110 20 -126 11 -28 12 -29 27 -9 52 70 143 307 174 455 19 94
23 49 4 -64 -19 -122 -42 -190 -112 -336 -48 -101 -56 -127 -68 -219 -21 -164
7 -418 71 -671 28 -106 29 -104 54 101 31 252 46 321 103 499 30 91 69 220 87
287 19 68 35 121 38 119 7 -8 -39 -220 -88 -406 -27 -102 -61 -252 -75 -335
-14 -82 -35 -203 -46 -268 -23 -135 -20 -171 22 -268 15 -36 33 -78 39 -93 6
-16 12 -27 15 -25 2 2 10 70 19 150 17 169 26 198 113 379 46 96 74 173 98
265 35 134 44 136 21 5 -8 -44 -50 -171 -100 -299 -75 -194 -88 -237 -102
-339 -18 -129 -15 -263 6 -302 12 -23 14 -19 34 70 21 96 28 109 267 550 5 8
9 13 9 10 0 -11 -99 -227 -159 -348 -70 -137 -107 -272 -97 -354 2 -25 21 -78
40 -117 20 -39 36 -73 36 -75 0 -3 -24 20 -52 51 -75 79 -177 120 -454 182
-151 34 -130 39 41 11 113 -18 181 -37 267 -74 20 -9 39 -12 42 -7 3 5 -12 36
-33 69 -36 54 -43 61 -83 67 -130 22 -320 94 -478 180 -95 52 -126 76 -65 50
176 -77 368 -149 462 -174 l113 -30 -47 88 -48 88 -90 38 c-134 56 -317 153
-432 229 -57 38 -103 70 -103 72 0 2 28 -12 63 -32 176 -99 523 -262 535 -250
2 3 -4 37 -15 77 -17 69 -20 74 -68 104 -78 50 -213 121 -285 149 -80 32 -211
129 -305 227 l-70 72 90 -77 c131 -112 226 -174 305 -201 81 -27 195 -84 258
-127 26 -18 42 -24 42 -16 -1 28 -36 217 -41 223 -3 3 -32 12 -64 20 -99 26
-153 64 -300 205 -77 75 -174 167 -215 205 -41 38 -57 56 -35 40 74 -54 220
-172 295 -240 122 -110 229 -175 287 -175 l24 0 -7 93 c-13 177 -14 180 -57
189 -85 18 -132 53 -190 140 -129 197 -129 203 2 41 82 -102 121 -131 197
-147 l30 -7 -4 93 c-3 69 -10 109 -29 153 -95 233 -171 320 -368 428 -71 38
-62 40 31 5 56 -20 153 -80 194 -119 45 -42 111 -136 131 -186 l20 -48 -4 110
c-4 90 -10 125 -34 195 -55 154 -106 238 -185 300 -54 43 -55 49 -5 24 81 -42
138 -109 174 -207 18 -49 33 -63 27 -24 -2 12 -15 114 -29 227 -14 113 -32
243 -40 290 -8 47 -15 90 -14 95 2 27 52 -104 69 -182z m187 -225 c-3 -8 -6
-5 -6 6 -1 11 2 17 5 13 3 -3 4 -12 1 -19z m1410 -260 c-3 -8 -6 -5 -6 6 -1
11 2 17 5 13 3 -3 4 -12 1 -19z m-50 -1424 c-3 -3 -12 -4 -19 -1 -8 3 -5 6 6
6 11 1 17 -2 13 -5z m-972 -996 c-40 -94 -100 -197 -159 -278 -55 -75 -57 -47
-3 31 77 110 117 185 178 335 9 22 13 25 16 12 2 -9 -12 -54 -32 -100z"/>
</g>
</svg>
